<svg xmlns="http://www.w3.org/2000/svg" id="Layer_1" width="191" height="27.4">
  <path d="M0 0h191v27.4H0z" style="fill: #ff5020"/>
  <path d="M15.6 15.6v-1.7h1.2c.4 0 .8-.1 1.1-.3.3-.2.4-.4.4-.7 0-.3-.1-.6-.4-.7-.3-.1-.6-.2-1.2-.2-.5 0-.9.1-1.3.2s-.7.3-.9.4l-.5-2c.4-.2.9-.4 1.5-.6.6-.2 1.3-.2 2-.2 1.1 0 1.9.2 2.5.6.5.4.8 1 .8 1.8 0 .2 0 .4-.1.7-.1.2-.1.4-.3.6-.1.2-.3.4-.5.5-.2.2-.4.3-.7.4v.1c.7.2 1.2.4 1.4.8.3.4.4.9.4 1.6 0 .4-.1.8-.2 1.1-.2.4-.4.7-.8.9-.3.3-.8.5-1.3.6-.5.2-1.1.2-1.8.2s-1.3-.1-1.8-.2-.9-.3-1.3-.5l.5-1.9c.3.2.6.3 1.1.4.4.1.9.2 1.4.2 1.2 0 1.7-.4 1.7-1.1 0-.3-.1-.6-.4-.7-.3-.2-.9-.2-1.7-.2h-.8zm7.2-5.1c.5-.2 1.1-.4 1.8-.5.7-.1 1.4-.2 2.2-.2.7 0 1.2.1 1.7.2s.8.4 1.1.7c.3.3.4.6.6 1.1s.2.9.2 1.4c0 .6 0 1.1-.1 1.7 0 .6-.1 1.1-.1 1.7v1.6c0 .5.1 1 .3 1.5h-2l-.5-1.4h-.1c-.3.4-.6.7-1.1 1-.5.3-1 .4-1.8.4-.4 0-.8-.1-1.2-.2-.4-.1-.7-.3-.9-.6-.3-.2-.5-.5-.6-.9-.1-.3-.2-.7-.2-1.1 0-.6.1-1.1.4-1.5.3-.4.6-.7 1.1-1 .5-.2 1.1-.4 1.8-.5.7-.1 1.4-.1 2.3-.1.1-.7 0-1.2-.2-1.5-.2-.3-.6-.5-1.3-.5-.5 0-1 .1-1.6.2-.6.1-1 .2-1.4.4l-.4-1.9zm3.1 7.2c.5 0 .9-.1 1.2-.3.3-.2.5-.5.7-.7v-1.2h-1.1c-.4 0-.7.1-1 .2-.3.1-.5.2-.7.4-.2.2-.2.4-.2.6 0 .4.1.6.3.8s.5.2.8.2zm14.6-2.5l.2-2h-.1l-.8 1.6-1.8 3h-.9l-2-3-.7-1.6h-.1l.2 2v4.4h-2.2V10h2.6l2.2 3.6.5 1.2h.1l.6-1.2 2-3.6h2.6v9.6h-2.4v-4.4zm4.1-.4c0-1.6.4-2.9 1.2-3.7.8-.9 1.9-1.3 3.3-1.3.8 0 1.4.1 2 .4.6.2 1 .6 1.4 1 .4.4.6 1 .8 1.6.2.6.3 1.3.3 2.1 0 1.6-.4 2.9-1.2 3.7-.8.9-1.9 1.3-3.3 1.3-.8 0-1.4-.1-2-.4s-1-.6-1.4-1c-.4-.4-.7-1-.8-1.6-.2-.7-.3-1.4-.3-2.1zm2.6 0c0 .4 0 .8.1 1.2.1.4.2.7.3.9.2.3.4.5.6.6s.5.2.9.2c.7 0 1.1-.2 1.5-.7.3-.5.5-1.2.5-2.2 0-.9-.1-1.6-.4-2.1s-.8-.8-1.5-.8c-.6 0-1.1.2-1.4.7s-.6 1.1-.6 2.2zm8.1-4.8h1.8l.3 1.1h.1c.3-.5.7-.8 1.2-1.1.5-.2 1-.3 1.7-.3 1.2 0 2.1.4 2.7 1.1.6.8.9 2 .9 3.7 0 .8-.1 1.6-.3 2.2-.2.7-.5 1.2-.9 1.7s-.8.8-1.4 1.1-1.2.4-1.9.4c-.4 0-.7 0-1-.1s-.5-.2-.8-.3v3.9h-2.5V10zm4.3 1.8c-.5 0-.9.1-1.1.4-.3.2-.5.6-.6 1.1v4c.2.1.4.3.6.3.2.1.5.1.8.1.7 0 1.2-.3 1.6-.8.4-.5.5-1.3.5-2.5 0-.8-.1-1.5-.4-2-.3-.3-.8-.6-1.4-.6zm5.6 3c0-1.6.4-2.9 1.2-3.7.8-.9 1.9-1.3 3.3-1.3.8 0 1.4.1 2 .4.6.2 1 .6 1.4 1 .4.4.6 1 .8 1.6.2.6.3 1.3.3 2.1 0 1.6-.4 2.9-1.2 3.7s-1.9 1.3-3.3 1.3c-.8 0-1.4-.1-2-.4-.6-.2-1-.6-1.4-1-.4-.4-.7-1-.8-1.6-.2-.7-.3-1.4-.3-2.1zm2.6 0c0 .4 0 .8.1 1.2.1.4.2.7.3.9.2.3.4.5.6.6.2.1.5.2.9.2.6 0 1.1-.2 1.5-.7.3-.5.5-1.2.5-2.2 0-.9-.1-1.6-.4-2.1s-.8-.8-1.5-.8c-.6 0-1.1.2-1.4.7s-.6 1.1-.6 2.2zm9.1.8v-1.7h1.2c.4 0 .8-.1 1.1-.3.3-.2.4-.4.4-.7 0-.3-.1-.6-.4-.7s-.6-.2-1.2-.2c-.5 0-.9.1-1.3.2s-.7.3-.9.4l-.5-1.9c.4-.2.9-.4 1.5-.6.6-.2 1.3-.2 2-.2 1.1 0 1.9.2 2.5.6.5.4.8 1 .8 1.8 0 .2 0 .4-.1.7s-.1.4-.3.6c-.1.2-.3.4-.5.5-.2.2-.4.3-.7.4v.1c.7.2 1.2.4 1.4.8.3.4.4.9.4 1.6 0 .4-.1.8-.2 1.1-.2.4-.4.7-.8.9s-.8.5-1.3.6c-.5.2-1.1.2-1.8.2s-1.3-.1-1.8-.2-.9-.3-1.3-.5l.5-1.9c.3.2.6.3 1.1.4.4.1.9.2 1.4.2 1.2 0 1.7-.4 1.7-1.1 0-.3-.2-.6-.5-.7-.3-.2-.9-.2-1.7-.2h-.7zm10.5 0h-.7v4h-2.5V10h2.5v4.1l.6-.3 2.2-3.8h2.7l-2.3 3.6-1 .7 1.1.7 2.6 4.5h-2.8l-2.4-3.9zm6.1-5.1c.5-.2 1.1-.4 1.8-.5.7-.1 1.4-.2 2.2-.2.7 0 1.2.1 1.7.2s.8.4 1.1.7c.3.3.4.6.6 1.1s.2.9.2 1.4c0 .6 0 1.1-.1 1.7s-.1 1.1-.1 1.7v1.6c0 .5.1 1 .3 1.5h-2l-.4-1.3h-.1c-.3.4-.6.7-1.1 1-.5.3-1 .4-1.7.4-.4 0-.8-.1-1.2-.2-.4-.1-.7-.3-.9-.6-.3-.2-.5-.5-.6-.9-.1-.3-.2-.7-.2-1.1 0-.6.1-1.1.4-1.5.3-.4.6-.7 1.1-1 .5-.2 1.1-.4 1.8-.5.7-.1 1.4-.1 2.3-.1.1-.7 0-1.2-.2-1.5s-.6-.5-1.3-.5c-.5 0-1 .1-1.6.2-.6.1-1 .2-1.4.4l-.6-2zm3.1 7.2c.5 0 .9-.1 1.2-.3.3-.2.5-.5.6-.7v-1.2h-1.1s-.7.1-1 .2c-.3.1-.5.2-.7.4s-.2.4-.2.6c0 .4.1.6.3.8.3.1.6.2.9.2zm20.8-1.9h-2.1v3.7H113v-3.7h-5.8v-1.4l6.1-8.3h2v7.8h2.1v1.9zm-4.5-4.9l.2-1.6h-.1l-.6 1.4-2 2.6-1 .7 1.2-.2h2.3v-2.9zm8.9 6.7c.8 0 1.5-.2 1.9-.6.4-.4.7-1 .7-1.7 0-.8-.3-1.3-.8-1.7-.5-.4-1.3-.5-2.2-.5l-1.5.1v-7h6.6v2.3H122v2.6l.8-.1c.6 0 1.2.1 1.7.3.5.2.9.5 1.3.9s.6.8.8 1.3c.2.5.3 1.1.3 1.7 0 .8-.1 1.4-.4 2-.3.6-.6 1.1-1.1 1.4-.5.4-1 .7-1.6.9-.6.2-1.3.3-2 .3-.6 0-1.1 0-1.6-.1s-1-.2-1.3-.4l.7-2.1c.3.1.6.2 1 .3.3.1.7.1 1.2.1zm22.1 4.1h-1.8l-.3-2.2h-6.4l-.3 2.2h-1.8v-4.4h1.1c.1-.1.2-.4.4-.7.2-.3.3-.8.5-1.4.2-.6.3-1.3.4-2.2.1-.9.2-1.9.2-3.1h6.7v7.4h1.4v4.4zm-3.9-4.2v-5.4h-2c0 .5-.1.9-.1 1.5s-.1 1-.2 1.5l-.3 1.4c-.1.4-.3.8-.4 1.1h3zm10.9-1.7h-3.1v3.8h-2.5V10h2.5v3.6h3.1V10h2.5v9.6h-2.5v-3.8zm12.3 2.9c-.4.3-.9.6-1.6.8s-1.4.3-2.1.3c-1.5 0-2.7-.4-3.4-1.3-.7-.9-1.1-2.1-1.1-3.7 0-1.7.4-2.9 1.2-3.8.8-.8 1.9-1.3 3.4-1.3.5 0 1 .1 1.4.2.5.1.9.3 1.2.6.4.3.6.7.9 1.2.2.5.3 1.1.3 1.9v.9c0 .3-.1.6-.1 1h-5.7c0 .8.2 1.4.6 1.8s1 .6 1.8.6c.5 0 1-.1 1.4-.2s.7-.3.9-.5l.9 1.5zm-3.6-7c-.6 0-1.1.2-1.4.6-.3.4-.5.9-.6 1.6h3.5c.1-.7-.1-1.2-.3-1.6-.2-.4-.6-.6-1.2-.6zm11.4 3.5l.1-1.4h-.1l-.8 1.4-3.4 4.3h-1.6V10h2.5v4.6l-.1 1.3h.1l.8-1.4 3.4-4.5h1.6v9.6H171v-4.4zm-2.7-9.1c.1.5.2.8.4 1.1.2.2.5.3.8.3.4 0 .6-.1.9-.3.2-.2.4-.5.4-1l1.9.5c-.2.8-.5 1.4-1.1 1.8-.6.3-1.3.5-2.1.5-.4 0-.8 0-1.1-.1-.4-.1-.7-.2-1-.4-.3-.2-.5-.4-.7-.8-.2-.3-.3-.7-.4-1.1l2-.5z" style="fill: #FFFFFF" />
</svg>
