<?xml version="1.0" encoding="utf-8"?>
<!-- Generator: Adobe Illustrator 20.0.0, SVG Export Plug-In . SVG Version: 6.00 Build 0)  -->
<svg version="1.1" id="Layer_1" xmlns="http://www.w3.org/2000/svg" xmlns:xlink="http://www.w3.org/1999/xlink" x="0px" y="0px"
	 width="191px" height="27.4px" viewBox="0 0 191 27.4" style="enable-background:new 0 0 191 27.4;" xml:space="preserve">
<style type="text/css">
	.st0{fill:#ff5020;}
	.st1{fill:#FFFFFF;}
</style>
<rect class="st0" width="191" height="27.4"/>
<g>
	<path class="st1" d="M15.6,15.6v-1.7h1.2c0.4,0,0.8-0.1,1.1-0.3c0.3-0.2,0.4-0.4,0.4-0.7c0-0.3-0.1-0.6-0.4-0.7
		c-0.3-0.1-0.6-0.2-1.2-0.2c-0.5,0-0.9,0.1-1.3,0.2c-0.4,0.1-0.7,0.3-0.9,0.4L14,10.6c0.4-0.2,0.9-0.4,1.5-0.6
		c0.6-0.2,1.3-0.2,2-0.2c1.1,0,1.9,0.2,2.5,0.6c0.5,0.4,0.8,1,0.8,1.8c0,0.2,0,0.4-0.1,0.7c-0.1,0.2-0.1,0.4-0.3,0.6
		c-0.1,0.2-0.3,0.4-0.5,0.5c-0.2,0.2-0.4,0.3-0.7,0.4v0.1c0.7,0.2,1.2,0.4,1.4,0.8c0.3,0.4,0.4,0.9,0.4,1.6c0,0.4-0.1,0.8-0.2,1.1
		c-0.2,0.4-0.4,0.7-0.8,0.9c-0.3,0.3-0.8,0.5-1.3,0.6c-0.5,0.2-1.1,0.2-1.8,0.2c-0.7,0-1.3-0.1-1.8-0.2c-0.5-0.1-0.9-0.3-1.3-0.5
		l0.5-1.9c0.3,0.2,0.6,0.3,1.1,0.4c0.4,0.1,0.9,0.2,1.4,0.2c1.2,0,1.7-0.4,1.7-1.1c0-0.3-0.1-0.6-0.4-0.7c-0.3-0.2-0.9-0.2-1.7-0.2
		H15.6z"/>
	<path class="st1" d="M22.8,10.5c0.5-0.2,1.1-0.4,1.8-0.5c0.7-0.1,1.4-0.2,2.2-0.2c0.7,0,1.2,0.1,1.7,0.2s0.8,0.4,1.1,0.7
		c0.3,0.3,0.4,0.6,0.6,1.1s0.2,0.9,0.2,1.4c0,0.6,0,1.1-0.1,1.7c0,0.6-0.1,1.1-0.1,1.7c0,0.5,0,1.1,0,1.6c0,0.5,0.1,1,0.3,1.5h-2
		L28,18.3h-0.1c-0.3,0.4-0.6,0.7-1.1,1c-0.5,0.3-1,0.4-1.8,0.4c-0.4,0-0.8-0.1-1.2-0.2c-0.4-0.1-0.7-0.3-0.9-0.6
		c-0.3-0.2-0.5-0.5-0.6-0.9c-0.1-0.3-0.2-0.7-0.2-1.1c0-0.6,0.1-1.1,0.4-1.5c0.3-0.4,0.6-0.7,1.1-1c0.5-0.2,1.1-0.4,1.8-0.5
		c0.7-0.1,1.4-0.1,2.3-0.1c0.1-0.7,0-1.2-0.2-1.5c-0.2-0.3-0.6-0.5-1.3-0.5c-0.5,0-1,0.1-1.6,0.2c-0.6,0.1-1,0.2-1.4,0.4L22.8,10.5z
		 M25.9,17.7c0.5,0,0.9-0.1,1.2-0.3c0.3-0.2,0.5-0.5,0.7-0.7v-1.2c-0.4,0-0.8,0-1.1,0c-0.4,0-0.7,0.1-1,0.2
		c-0.3,0.1-0.5,0.2-0.7,0.4c-0.2,0.2-0.2,0.4-0.2,0.6c0,0.4,0.1,0.6,0.3,0.8S25.6,17.7,25.9,17.7z"/>
	<path class="st1" d="M40.5,15.2l0.2-2h-0.1l-0.8,1.6l-1.8,3h-0.9l-2-3l-0.7-1.6h-0.1l0.2,2v4.4h-2.2V10h2.6l2.2,3.6l0.5,1.2h0.1
		l0.6-1.2l2-3.6h2.6v9.6h-2.4V15.2z"/>
	<path class="st1" d="M44.6,14.8c0-1.6,0.4-2.9,1.2-3.7c0.8-0.9,1.9-1.3,3.3-1.3c0.8,0,1.4,0.1,2,0.4c0.6,0.2,1,0.6,1.4,1
		c0.4,0.4,0.6,1,0.8,1.6c0.2,0.6,0.3,1.3,0.3,2.1c0,1.6-0.4,2.9-1.2,3.7c-0.8,0.9-1.9,1.3-3.3,1.3c-0.8,0-1.4-0.1-2-0.4
		s-1-0.6-1.4-1c-0.4-0.4-0.7-1-0.8-1.6C44.7,16.2,44.6,15.5,44.6,14.8z M47.2,14.8c0,0.4,0,0.8,0.1,1.2c0.1,0.4,0.2,0.7,0.3,0.9
		c0.2,0.3,0.4,0.5,0.6,0.6s0.5,0.2,0.9,0.2c0.7,0,1.1-0.2,1.5-0.7c0.3-0.5,0.5-1.2,0.5-2.2c0-0.9-0.1-1.6-0.4-2.1s-0.8-0.8-1.5-0.8
		c-0.6,0-1.1,0.2-1.4,0.7S47.2,13.7,47.2,14.8z"/>
	<path class="st1" d="M55.3,10h1.8l0.3,1.1h0.1c0.3-0.5,0.7-0.8,1.2-1.1c0.5-0.2,1-0.3,1.7-0.3c1.2,0,2.1,0.4,2.7,1.1
		c0.6,0.8,0.9,2,0.9,3.7c0,0.8-0.1,1.6-0.3,2.2c-0.2,0.7-0.5,1.2-0.9,1.7s-0.8,0.8-1.4,1.1s-1.2,0.4-1.9,0.4c-0.4,0-0.7,0-1-0.1
		s-0.5-0.2-0.8-0.3v3.9h-2.5V10z M59.6,11.8c-0.5,0-0.9,0.1-1.1,0.4c-0.3,0.2-0.5,0.6-0.6,1.1v4c0.2,0.1,0.4,0.3,0.6,0.3
		c0.2,0.1,0.5,0.1,0.8,0.1c0.7,0,1.2-0.3,1.6-0.8c0.4-0.5,0.5-1.3,0.5-2.5c0-0.8-0.1-1.5-0.4-2C60.7,12.1,60.2,11.8,59.6,11.8z"/>
	<path class="st1" d="M65.2,14.8c0-1.6,0.4-2.9,1.2-3.7c0.8-0.9,1.9-1.3,3.3-1.3c0.8,0,1.4,0.1,2,0.4c0.6,0.2,1,0.6,1.4,1
		c0.4,0.4,0.6,1,0.8,1.6c0.2,0.6,0.3,1.3,0.3,2.1c0,1.6-0.4,2.9-1.2,3.7s-1.9,1.3-3.3,1.3c-0.8,0-1.4-0.1-2-0.4
		c-0.6-0.2-1-0.6-1.4-1c-0.4-0.4-0.7-1-0.8-1.6C65.3,16.2,65.2,15.5,65.2,14.8z M67.8,14.8c0,0.4,0,0.8,0.1,1.2
		c0.1,0.4,0.2,0.7,0.3,0.9c0.2,0.3,0.4,0.5,0.6,0.6c0.2,0.1,0.5,0.2,0.9,0.2c0.6,0,1.1-0.2,1.5-0.7c0.3-0.5,0.5-1.2,0.5-2.2
		c0-0.9-0.1-1.6-0.4-2.1s-0.8-0.8-1.5-0.8c-0.6,0-1.1,0.2-1.4,0.7S67.8,13.7,67.8,14.8z"/>
	<path class="st1" d="M76.9,15.6v-1.7h1.2c0.4,0,0.8-0.1,1.1-0.3c0.3-0.2,0.4-0.4,0.4-0.7c0-0.3-0.1-0.6-0.4-0.7s-0.6-0.2-1.2-0.2
		c-0.5,0-0.9,0.1-1.3,0.2c-0.4,0.1-0.7,0.3-0.9,0.4l-0.5-1.9c0.4-0.2,0.9-0.4,1.5-0.6c0.6-0.2,1.3-0.2,2-0.2c1.1,0,1.9,0.2,2.5,0.6
		c0.5,0.4,0.8,1,0.8,1.8c0,0.2,0,0.4-0.1,0.7s-0.1,0.4-0.3,0.6c-0.1,0.2-0.3,0.4-0.5,0.5c-0.2,0.2-0.4,0.3-0.7,0.4v0.1
		c0.7,0.2,1.2,0.4,1.4,0.8c0.3,0.4,0.4,0.9,0.4,1.6c0,0.4-0.1,0.8-0.2,1.1c-0.2,0.4-0.4,0.7-0.8,0.9s-0.8,0.5-1.3,0.6
		c-0.5,0.2-1.1,0.2-1.8,0.2s-1.3-0.1-1.8-0.2c-0.5-0.1-0.9-0.3-1.3-0.5l0.5-1.9c0.3,0.2,0.6,0.3,1.1,0.4c0.4,0.1,0.9,0.2,1.4,0.2
		c1.2,0,1.7-0.4,1.7-1.1c0-0.3-0.2-0.6-0.5-0.7c-0.3-0.2-0.9-0.2-1.7-0.2H76.9z"/>
	<path class="st1" d="M87.4,15.6h-0.7v4h-2.5V10h2.5v4.1l0.6-0.3l2.2-3.8h2.7l-2.3,3.6l-1,0.7l1.1,0.7l2.6,4.5h-2.8L87.4,15.6z"/>
	<path class="st1" d="M93.5,10.5c0.5-0.2,1.1-0.4,1.8-0.5c0.7-0.1,1.4-0.2,2.2-0.2c0.7,0,1.2,0.1,1.7,0.2s0.8,0.4,1.1,0.7
		c0.3,0.3,0.4,0.6,0.6,1.1s0.2,0.9,0.2,1.4c0,0.6,0,1.1-0.1,1.7s-0.1,1.1-0.1,1.7c0,0.5,0,1.1,0,1.6c0,0.5,0.1,1,0.3,1.5h-2
		l-0.4-1.3h-0.1c-0.3,0.4-0.6,0.7-1.1,1c-0.5,0.3-1,0.4-1.7,0.4c-0.4,0-0.8-0.1-1.2-0.2c-0.4-0.1-0.7-0.3-0.9-0.6
		c-0.3-0.2-0.5-0.5-0.6-0.9c-0.1-0.3-0.2-0.7-0.2-1.1c0-0.6,0.1-1.1,0.4-1.5c0.3-0.4,0.6-0.7,1.1-1c0.5-0.2,1.1-0.4,1.8-0.5
		c0.7-0.1,1.4-0.1,2.3-0.1c0.1-0.7,0-1.2-0.2-1.5s-0.6-0.5-1.3-0.5c-0.5,0-1,0.1-1.6,0.2c-0.6,0.1-1,0.2-1.4,0.4L93.5,10.5z
		 M96.6,17.7c0.5,0,0.9-0.1,1.2-0.3c0.3-0.2,0.5-0.5,0.6-0.7v-1.2c-0.4,0-0.8,0-1.1,0s-0.7,0.1-1,0.2c-0.3,0.1-0.5,0.2-0.7,0.4
		s-0.2,0.4-0.2,0.6c0,0.4,0.1,0.6,0.3,0.8C96,17.6,96.3,17.7,96.6,17.7z"/>
	<path class="st1" d="M117.4,15.8h-2.1v3.7h-2.3v-3.7h-5.8v-1.4l6.1-8.3h2v7.8h2.1V15.8z M112.9,10.9l0.2-1.6H113l-0.6,1.4l-2,2.6
		l-1,0.7l1.2-0.2h2.3V10.9z"/>
	<path class="st1" d="M121.8,17.6c0.8,0,1.5-0.2,1.9-0.6c0.4-0.4,0.7-1,0.7-1.7c0-0.8-0.3-1.3-0.8-1.7c-0.5-0.4-1.3-0.5-2.2-0.5
		l-1.5,0.1v-7h6.6v2.3H122v2.6l0.8-0.1c0.6,0,1.2,0.1,1.7,0.3c0.5,0.2,0.9,0.5,1.3,0.9c0.4,0.4,0.6,0.8,0.8,1.3
		c0.2,0.5,0.3,1.1,0.3,1.7c0,0.8-0.1,1.4-0.4,2c-0.3,0.6-0.6,1.1-1.1,1.4c-0.5,0.4-1,0.7-1.6,0.9c-0.6,0.2-1.3,0.3-2,0.3
		c-0.6,0-1.1,0-1.6-0.1s-1-0.2-1.3-0.4l0.7-2.1c0.3,0.1,0.6,0.2,1,0.3C120.9,17.6,121.3,17.6,121.8,17.6z"/>
	<path class="st1" d="M143.9,21.7h-1.8l-0.3-2.2h-6.4l-0.3,2.2h-1.8v-4.4h1.1c0.1-0.1,0.2-0.4,0.4-0.7c0.2-0.3,0.3-0.8,0.5-1.4
		c0.2-0.6,0.3-1.3,0.4-2.2c0.1-0.9,0.2-1.9,0.2-3.1h6.7v7.4h1.4V21.7z M140,17.5v-5.4h-2c0,0.5-0.1,0.9-0.1,1.5s-0.1,1-0.2,1.5
		c-0.1,0.5-0.2,0.9-0.3,1.4c-0.1,0.4-0.3,0.8-0.4,1.1H140z"/>
	<path class="st1" d="M150.9,15.8h-3.1v3.8h-2.5V10h2.5v3.6h3.1V10h2.5v9.6h-2.5V15.8z"/>
	<path class="st1" d="M163.2,18.7c-0.4,0.3-0.9,0.6-1.6,0.8s-1.4,0.3-2.1,0.3c-1.5,0-2.7-0.4-3.4-1.3c-0.7-0.9-1.1-2.1-1.1-3.7
		c0-1.7,0.4-2.9,1.2-3.8c0.8-0.8,1.9-1.3,3.4-1.3c0.5,0,1,0.1,1.4,0.2c0.5,0.1,0.9,0.3,1.2,0.6c0.4,0.3,0.6,0.7,0.9,1.2
		c0.2,0.5,0.3,1.1,0.3,1.9c0,0.3,0,0.6,0,0.9c0,0.3-0.1,0.6-0.1,1h-5.7c0,0.8,0.2,1.4,0.6,1.8s1,0.6,1.8,0.6c0.5,0,1-0.1,1.4-0.2
		s0.7-0.3,0.9-0.5L163.2,18.7z M159.6,11.7c-0.6,0-1.1,0.2-1.4,0.6c-0.3,0.4-0.5,0.9-0.6,1.6h3.5c0.1-0.7-0.1-1.2-0.3-1.6
		C160.6,11.9,160.2,11.7,159.6,11.7z"/>
	<path class="st1" d="M171,15.2l0.1-1.4H171l-0.8,1.4l-3.4,4.3h-1.6V10h2.5v4.6l-0.1,1.3h0.1l0.8-1.4l3.4-4.5h1.6v9.6H171V15.2z
		 M168.3,6.1c0.1,0.5,0.2,0.8,0.4,1.1c0.2,0.2,0.5,0.3,0.8,0.3c0.4,0,0.6-0.1,0.9-0.3c0.2-0.2,0.4-0.5,0.4-1l1.9,0.5
		c-0.2,0.8-0.5,1.4-1.1,1.8C171,8.8,170.3,9,169.5,9c-0.4,0-0.8,0-1.1-0.1c-0.4-0.1-0.7-0.2-1-0.4c-0.3-0.2-0.5-0.4-0.7-0.8
		c-0.2-0.3-0.3-0.7-0.4-1.1L168.3,6.1z"/>
</g>
</svg>
