<?xml version="1.0" encoding="utf-8"?>
<!-- Generator: Adobe Illustrator 20.0.0, SVG Export Plug-In . SVG Version: 6.00 Build 0)  -->
<svg version="1.1" id="Layer_1" xmlns="http://www.w3.org/2000/svg" xmlns:xlink="http://www.w3.org/1999/xlink" x="0px" y="0px"
	 width="59.2px" height="77.2px" viewBox="0 0 59.2 77.2" style="enable-background:new 0 0 59.2 77.2;" xml:space="preserve">
<style type="text/css">
	.st0{fill:#5AAA2D;}
</style>
<path class="st0" d="M57.7,0l-4.8,1.3c0.1,0.2,5.6,21.9-5.9,40.9c-7.1,11.6-19,19.9-35.5,24.8c4.1-5.3,6-11.5,6.1-11.8
	c0.4-1.3-0.4-2.7-1.7-3.1c-1.3-0.4-2.7,0.4-3.1,1.7c-1,3.3-5,12.5-11.2,15.3c-1,0.4-1.6,1.5-1.5,2.6c0.1,1.1,1,2,2.1,2.1l22.3,3.4
	c0.1,0,0.3,0,0.4,0c1.2,0,2.3-0.9,2.5-2.1c0.2-1.4-0.7-2.6-2.1-2.8l-9.3-1.4c16.1-5.4,28-14.1,35.2-26.1C63.9,23.8,57.9,1,57.7,0z"
	/>
</svg>
