<?xml version="1.0" encoding="utf-8"?>
<!-- Generator: Adobe Illustrator 20.0.0, SVG Export Plug-In . SVG Version: 6.00 Build 0)  -->
<svg version="1.1" id="Слой_1" xmlns="http://www.w3.org/2000/svg" xmlns:xlink="http://www.w3.org/1999/xlink" x="0px" y="0px"
	 width="176.3px" height="125.7px" viewBox="0 0 176.3 125.7" style="enable-background:new 0 0 176.3 125.7;" xml:space="preserve"
	>
<style type="text/css">
	.st0{fill:#5AAA2D;}
	.st1{fill:#FFFFFF;}
	.st2{fill:#02569A;}
</style>
<path class="st0" d="M175.9,46.8C171.7,19.3,140.1,0,99.1,0c-6.5,0-13.2,0.5-19.8,1.5C56,5,35.1,14.3,20.2,27.7
	C5.1,41.3-1.9,57.6,0.5,73.4c4.2,27.6,35.8,46.8,76.8,46.8c6.5,0,13.2-0.5,19.8-1.5c23.2-3.5,44.2-12.8,59-26.2
	C171.2,79,178.3,62.7,175.9,46.8z"/>
<g>
	<path class="st1" d="M61.3,90.1c-0.1,0.6-0.1,1.2,0,1.7s0.6,1.1,1.2,1.1c0.8-0.1,1.6-1.4,1.9-1.8c0.6-0.4,0.2,0.5,0,0.7
		c-0.4,0.6-1.5,1.8-2.3,1.9c-0.8,0.2-2-0.3-2.2-1.1c-0.7,1.8-1.8,2.9-3.8,2.9c-2.3-0.4-3.3-4.6-2.7-6.6c0.1-0.9,1-1.8,2-1.4
		c0.4,0.1,0.6,0.4,0.7,0.8c0.1,0.4,0,0.8,0,1.1c-0.1,0.6-0.6,2.8,0,3.5c0.2,0.5,0.7,0.7,1.1,0.6c0.7-0.2,1.1-0.6,1.5-1.1
		c0.5-0.8,0.6-2.4,0.7-3.4c0.1-0.5,0.4-1.2,1.1-1.2C61.3,88.1,61.5,89.3,61.3,90.1z"/>
	<path class="st1" d="M71.6,88.8c0.1-0.7,1.3-1.1,2.3-0.6c1.2,0.6,1.9-0.1,2.3-0.8c0.8-1.6,1.1-3.2,2-4.7c1.4,1.9,2.6,5.5,4.1,5.1
		c1.2-0.6,1.2-1.2,1.8-1.6c0.3,1-0.4,1.8-1.1,2.1c-1.6,0.8-2.9,0-3.6-1.6c-0.2-0.1-0.4-0.6-0.7-0.8c0-0.1-0.1-0.2-0.1,0
		c-1.3,2.3-1.1,5.6-4.5,5.5c-1.1,0-2.7-0.7-2.8-2v-0.1L71.6,88.8z"/>
	<path class="st1" d="M86,86.6c0.1,0.3,0.4,0.4,0.7,0.5c1.5,0.2,2.2-0.3,3.1-0.8c0.5-0.2,1.5-1.3,2-1.4c0.2-0.1,0.1,0.1,0.2,0.2
		c-0.8,1.4-3.5,3-5.2,3.2c-1.8,0.3-2.9-0.8-3.3-2.2c-0.4-1.4,0-3.2,1.2-4.2c1.1-1,2.8-1.4,3.7-0.7c1.4,1.4,0.2,4.9-2.1,5.3L86,86.6z
		 M85.6,85.9c0.4-0.3,1.4-1.8,1.3-2.7c-0.1-0.5-0.5-0.6-0.9-0.3C85.3,83.7,85.1,85,85.6,85.9z"/>
	<path class="st1" d="M98.4,81.4c0.1-0.8,1-2.2,1.7-2.4c1.2-0.4,2,0.2,2.4,1.3c0.5,1.1,1.5,2.6,3,1.5c0.3-0.3,0.5-0.6,0.8-0.9
		c0.3-0.8,0.7-0.1,0.4,0.5c-1.4,2.8-4.6,1.5-5.3,0c-0.6-0.3-1.1-0.7-1.4,0.5c-0.3,1.1-0.8,2.9-1.7,3.3c-1.3,0.5-0.8-3.6-2.3-3.4
		c-1.1,0.2-2,3-2.2,4.2c-0.3,0.7-0.5,1.7-1.3,2c-1.2,0.4-1.6-3.3-1.5-6.2c-0.2-1.8,0.2-2.5,1.2-3.2c1.6-1.1,1.9,0.7,2,1.8v0.1
		c0.5-1.7,2.9-3.4,3.7-1.9C98,79.4,98.3,80.4,98.4,81.4z M95.2,77.3c0.1,0,0.2,0,0.2-0.1c1.7-0.1,2.5-1.5,3.9-2.4
		c0.3-0.2,0.5-0.4,0.8-0.6c0.3-0.3,0.8-0.3,1.2-0.4c0.2,0.1,0.5,0,0.7,0.2c-1.3,2.2-4.2,3-6.5,3.7L95.2,77.3z"/>
	<path class="st1" d="M107.7,76.6c0.5,0.1,1,0.9,0.5,1.4c-0.2,0.8-0.4,2.2,0.7,2.7c0.7,0.3,1.2,0,1.5-0.4c0.5-0.5,0.3-2.4-0.1-3
		c-0.8,0.1-1.6-0.2-1.8-1.1c0-0.8,0.3-1.1,1-1.2c0.9,0,1.1,0.3,1.6,1l0.1-0.1c0.3-0.1,0.3-0.4,0.5-0.6c0.1-0.2,0.5-0.3,0.4,0
		c0.3,0.6-0.4,0.9-0.7,1.3c1,1.2,1.3,3.6,0.3,5c-0.6,0.5-1.2,0.7-2,0.9c-1.8,0.7-4.6-0.8-4.4-3c-0.2-0.9,0-1.8,0.8-2.5
		c0.2-0.2,0.4-0.4,0.7-0.4C107.1,76.5,107.4,76.5,107.7,76.6L107.7,76.6z M110,76.8c0-0.3-0.1-0.9-0.5-1c-0.3-0.1-0.2,0.2-0.2,0.5
		c0,0.1,0.1,0.2,0.1,0.2c0,0.1,0,0.2,0.1,0.2C109.5,76.7,109.8,76.8,110,76.8z"/>
	<path class="st1" d="M77.3,99.1l-0.1-0.6c0-0.2,0-0.3,0-0.4c-0.1-0.2,0.1-0.4,0.1-0.6c0.1,0,0.1,0,0-0.1c0.5-0.2,1-0.3,1.5-0.4
		c0.2-1.8,0.9-3.6,2.1-4.8c0.6-0.8,1.9-1.3,2.7-0.7c0.5,0.8,0.4,1.9,0.5,2.9c-0.1,2.5-1.7,4-3.6,4.9c0.1,0.6,0.3,1.3,0.7,1.9
		c0.6,0.7,1.2,0.9,1.8,0.8c0.2,0,0.5-0.3,0.7-0.7c-0.4,0.1-0.8,0.1-1.1,0c-0.5,0-1-0.5-1.1-0.9c0-0.2,0-0.3,0-0.5
		c0.8-0.6,2.6-0.3,3,0.7c0.7-0.3,1.3-0.6,1.8-1c0.1-0.1,0.1,0.1,0.1,0.1c-0.1,0.5-0.9,1.1-1.8,1.4l0,0c0,0.4-0.2,0.7-0.4,1.1
		c-0.6,0.5-1.1,1.3-2,1.2c-1.8-0.6-2.8-1.9-3.3-3.5c-0.4,0.1-0.8,0.2-1.3,0.2L77.3,99.1z M77.3,99.5l-0.2-0.7l0.1,0.2
		C77.3,99.3,77.4,99.5,77.3,99.5z M80.8,96.6c1.3-0.9,1.6-1.9,1.2-2.5c-0.3,0.4-0.3,0.3-0.8,1C81.1,95.6,80.9,96.1,80.8,96.6z
		 M83.9,100.7C83.9,100.7,83.8,100.7,83.9,100.7c-0.3-0.5-0.7-0.3-1.1-0.2c-0.1,0,0,0.1,0,0.1C83.1,100.7,83.5,100.7,83.9,100.7z"/>
	<path class="st1" d="M94.9,92.3L94.9,92.3c0.1,0,0.1,0,0.2,0l0.2-0.1h0.1l0.3,0.1c0.7-0.1,1.1,0.4,1.2,1c0.1,0.4,0.1,0.9,0,1.3l0,0
		c0,0,0,0.1,0,0.2c0,0,0,0.1,0.1,0l0,0c0.5-0.6,0.9-0.8,1.2-0.9c1.5-0.4,2.2,2.7,3.7,3.1h0.1c0.1,0,0.1-0.1,0.2-0.3
		c1-0.3,1-1.9,1.6-2h0.1c0.2,1.3-0.9,2.9-2.2,3.3c-0.1,0-0.2,0.1-0.2,0.1c-0.7,0.2-1.6-0.3-1.9-0.8c-0.6-0.5-0.9-1.2-1.8-1l0,0
		c0-0.1-0.1-0.1-0.2-0.1c-1.1,0.5-1.1,1.8-1.1,3.4c0,0.6,0,1.4-0.9,1.6c-0.1,0-0.2,0-0.2,0c-0.6,0.1-0.9-0.6-1.2-1.7
		C93.5,97.3,93.7,93,94.9,92.3L94.9,92.3z"/>
	<path class="st1" d="M105.1,91.3c0.5,0.1,1,0.9,0.5,1.4c-0.2,0.8-0.4,2.2,0.7,2.7c0.7,0.3,1.2,0,1.5-0.4c0.5-0.5,0.3-2.4-0.1-3
		c-0.8,0.1-1.6-0.2-1.8-1.1c0-0.8,0.3-1.1,1-1.2c0.9,0,1.1,0.3,1.6,1l0.1-0.1c0.3-0.1,0.3-0.4,0.5-0.6c0.1-0.2,0.5-0.3,0.4,0
		c0.3,0.6-0.4,0.9-0.7,1.3c1,1.2,1.3,3.6,0.3,5c-0.6,0.5-1.2,0.7-2,0.9c-1.8,0.7-4.6-0.8-4.4-3c-0.2-0.9,0-1.8,0.8-2.5
		c0.2-0.2,0.4-0.4,0.7-0.4C104.5,91.2,104.8,91.2,105.1,91.3L105.1,91.3z M107.4,91.4c0-0.3-0.1-0.9-0.5-1c-0.3-0.1-0.2,0.2-0.2,0.5
		c0,0.1,0.1,0.2,0.1,0.2c0,0.1,0,0.2,0.1,0.2C107,91.3,107.3,91.4,107.4,91.4z"/>
	<path class="st1" d="M116.4,94.3c-0.1,0.3-1.2,0.8-2.3,1c-0.2,0-0.4,0.1-0.5,0.1c-1.2,0.2-2.1-0.5-2.2-1.6c-0.1-0.3,0-0.6,0-0.9
		c0.2-1.9,1.4-3.9,3.4-4.2h0.1c1.2-0.2,2,0,2.5,0.9l0.3,0.5c0.5,0.9,0.9,1.6,0.9,3.3c0.9-0.7,2.1-1.4,2.7-1.5c0,0.1,0.1,0.4,0,0.5
		c-0.7,0.3-2.5,1.6-2.7,1.7c0,0.5-0.1,0.9-0.1,1.4c-0.2,0.9-1.1,2.5-1.7,3c-0.1,0.1-0.3,0.1-0.4,0.2l-0.3,0.1c-0.2,0-0.5,0-0.6-0.2
		c0,0-0.1,0-0.1-0.1v-0.2v-0.2c-0.6-1.8,0.7-2.9,1.8-3.7v-0.3l-0.1-0.7C117,93.8,116.7,94,116.4,94.3L116.4,94.3z M116.9,92.5
		c-0.3-0.7-0.7-1.3-1.1-1.7c-0.1-0.1-0.3-0.1-0.5-0.1c-0.3,0-0.6,0.2-0.9,0.5c-0.4,0.3-0.4,1.1-0.4,1.5v0.1c0.1,0.3,0.3,0.4,0.5,0.3
		c0.4,0,0.7-0.7,0.9-0.9c0.1-0.1,0.5-0.2,0.6-0.2C116.4,92.1,116.6,92.3,116.9,92.5z M116.5,96.2L116.5,96.2
		c-0.1,0.2-0.2,0.5-0.2,0.7l0,0l0,0c0,0.2,0.2,0.3,0.3,0.3c0.2,0,0.3-0.1,0.4-0.3c0.2-0.3,0.2-0.4,0.3-0.8c0.1-0.4,0.1-0.8,0.1-1.2
		C117,95.5,116.7,95.8,116.5,96.2z"/>
	<path class="st1" d="M127.6,87.8c0.1,1-0.3,1.7-0.1,2.6c0.1,0.3,0.2,0.6,0.5,0.8c1.1,0.5,1.7-0.5,2.3-1c0.2-0.2,0.3-0.6,0.6-0.7
		c0.3-0.2,0.6,0,0.3,0.4c-0.5,0.8-1.3,1.7-2.3,1.9c-0.6,0.1-1.1,0.2-1.7,0.1c-0.5-0.1-0.7-0.4-0.8-0.9c0-0.2-0.1-0.4-0.1-0.5
		c-0.4,1.1-2,3.1-3.5,3.5l-0.1,0.1h-0.2c-0.8,0.2-1.6-0.6-2.1-1.2l0,0c0-0.1-0.1-0.2-0.1-0.4c-0.3-1.4,0.3-2.9,0.8-4.2
		c0.3-0.4,0.5-0.8,0.8-1.1c0.6-0.4,1.2-0.6,1.7-0.6c1.1-0.3,1.7-0.1,2.2,0.7c0.2-0.4,0.3-1,1-1C127.5,86.6,127.6,87.2,127.6,87.8z
		 M124.4,89.3c-0.6-0.6-1.5-0.1-1.8,0.6c-0.1,0.3-0.3,0.9-0.3,1.3c0.1,1.3,1.1,1.3,1.8,0.7c0.5-0.4,0.7-0.9,1-1.4
		c0.1-0.4,0.2-0.7,0.3-1.1C125.1,89.5,124.7,89.6,124.4,89.3z"/>
	<path class="st1" d="M138.3,87.4c0.1,0.6,0.8,1.1,1.5,0.8c1.1-0.3,1.6-1,2.5-1.6c0.5-0.4,0.7-0.2,0.3,0.3c-0.8,1.2-1.7,2-3.1,2.3
		h-0.1c-1.7,0-2.6-0.6-2.9-1.8l-0.2-0.4c-0.3-0.7-0.5-0.9-0.9-0.8c-0.5,0.1-1.6,2.2-1.9,3.1c-0.4,1.3-0.5,2.3-0.6,3.9
		c-0.2,2.1,0.1,3.7-1.1,4h-0.2c-0.7,0-1-1.4-1-2.5c-0.3-3.7-0.6-8.6-0.4-11.9c0-0.8,0.6-1.6,1.4-1.8c0.6-0.1,1.2,0.2,1.4,1.2l0,0
		c0.2,0.9-0.9,4.5-0.8,7.1c0.6-3.2,1.8-5.4,2.8-5.6C136.8,83.6,137.7,85.7,138.3,87.4z"/>
	<path class="st1" d="M143.4,82.3c0.5,0.1,1,0.9,0.5,1.4c-0.2,0.8-0.4,2.2,0.7,2.7c0.7,0.3,1.2,0,1.5-0.4c0.5-0.5,0.3-2.4-0.1-3
		c-0.8,0.1-1.6-0.2-1.8-1.1c0-0.8,0.3-1.1,1-1.2c0.9,0,1.1,0.3,1.6,1l0.1-0.1c0.3-0.1,0.3-0.4,0.5-0.6c0.1-0.2,0.5-0.3,0.4,0
		c0.3,0.6-0.4,0.9-0.7,1.3c1,1.2,1.3,3.6,0.3,5c-0.6,0.5-1.2,0.7-2,0.9c-1.8,0.7-4.6-0.8-4.4-3c-0.2-0.9,0-1.8,0.8-2.5
		c0.2-0.2,0.4-0.4,0.7-0.4C142.8,82.2,143.1,82.2,143.4,82.3L143.4,82.3z M145.7,82.4c0-0.3-0.1-0.9-0.5-1c-0.3-0.1-0.2,0.2-0.2,0.5
		c0,0.1,0.1,0.2,0.1,0.2c0,0.1,0,0.2,0.1,0.2C145.3,82.4,145.6,82.4,145.7,82.4z"/>
	<path class="st1" d="M152.9,80.7c0,1.1-0.4,2.1-0.5,3.7c1.2-1.6,2.6-3.3,4.1-5.3c0.1-0.3,0.4-0.6,0.7-0.6c0.2,0,0.4,0,0.5,0.2
		c-0.5,0.9-0.9,2-1.4,2.7c-0.3,0.5-0.7,1-1.2,1.7c0.6,0,0.5,0.3,1,0.7c0.9,0.8,1.7,1.2,2.7,1.1c0.9-0.3,1.8-0.7,1.9-1.8
		c0-0.2,0.1-0.2,0.2-0.3c0.1,0,0.3,0,0.3,0.2l0,0c-0.1,1-0.8,2.1-1.8,2.3h-0.1c-0.6,0.1-1.3,0.3-2.2,0.2c-1.3-0.3-2-0.4-3-1.2
		c-0.7,0.9-1.6,2.7-2.2,3.4c-0.8,0.4-1.3,0.6-1.5-0.3c-0.1-0.6-0.3-1.1-0.4-1.7c-0.4-2.5-0.6-4.5,0.3-5.9l0.2-0.2
		c0.2-0.2,0.4-0.3,0.6-0.3c0.3-0.1,0.6,0,0.9,0.1h0.1c0.2-0.1,0.4,0.1,0.7,0.1L152.9,80.7z"/>
</g>
<g>
	<path class="st1" d="M39.1,28.5l-0.5,0.1l0.9,4.1l-1.9,0.4l-2.1-9.6l1.9-0.4l0.9,4.2l0.4-0.3l1.8-4.6l2.1-0.5l-1.9,4.6l-0.6,0.7
		l0.9,0.4l4.2,3.8L42.8,32L39.1,28.5z"/>
	<path class="st1" d="M44.6,24.8c0.7-0.5,1.6-0.9,2.8-1.2c0.9-0.2,1.6-0.1,2,0.2c0.5,0.3,0.8,0.9,0.9,1.7c0.1,0.3,0.1,0.8,0.2,1.4
		c0.1,0.6,0.2,1.1,0.2,1.4c0.2,0.8,0.4,1.4,0.7,1.8L50,30.4l-0.5-0.9h-0.1c-0.3,0.8-0.9,1.3-1.8,1.5c-0.6,0.1-1.2,0.1-1.6-0.2
		c-0.5-0.3-0.8-0.7-0.9-1.3c-0.3-1.5,0.7-2.5,3-3c0.2,0,0.4-0.1,0.5-0.1c0-0.1,0-0.3-0.1-0.5c-0.1-0.3-0.2-0.6-0.4-0.7
		s-0.5-0.1-0.9-0.1c-0.8,0.2-1.5,0.5-2,0.9L44.6,24.8z M49.1,28.4l-0.2-0.9c-0.2,0-0.4,0.1-0.5,0.1c-1.1,0.2-1.6,0.6-1.5,1.2
		c0.1,0.3,0.2,0.4,0.4,0.5s0.4,0.1,0.7,0.1C48.6,29.3,49,28.9,49.1,28.4z"/>
	<path class="st1" d="M51.4,22.9l1.3-0.3l0.4,0.8h0.1c0.3-0.8,0.9-1.3,1.8-1.5c0.9-0.2,1.6,0,2.1,0.4c0.5,0.5,1,1.3,1.2,2.5
		c0.3,1.2,0.2,2.2-0.2,3S57,29.1,56,29.3c-0.5,0.1-0.9,0.1-1.3,0l0.6,2.8l-1.8,0.4L51.4,22.9z M53.6,24.9l0.6,2.8
		c0.3,0.2,0.7,0.2,1.1,0.1c0.5-0.1,0.9-0.4,1-0.8c0.2-0.4,0.2-1,0-1.9c-0.3-1.3-0.8-1.8-1.7-1.6C54.1,23.7,53.7,24.2,53.6,24.9z"/>
	<path class="st1" d="M63.9,21.9L62,22.3l1.1,5.3L61.3,28l-1.1-5.3l-1.9,0.4L58,21.5l5.7-1.2L63.9,21.9z"/>
	<path class="st1" d="M64.4,20.6c0.7-0.5,1.6-0.9,2.8-1.2c0.9-0.2,1.6-0.1,2,0.2c0.5,0.3,0.8,0.9,0.9,1.7c0.1,0.3,0.1,0.8,0.2,1.4
		s0.2,1.1,0.2,1.4c0.2,0.8,0.4,1.4,0.7,1.8l-1.5,0.3l-0.5-0.9h-0.1c-0.3,0.8-0.9,1.3-1.8,1.5c-0.6,0.1-1.2,0.1-1.6-0.2
		c-0.5-0.3-0.8-0.7-0.9-1.3c-0.3-1.5,0.7-2.5,3-3c0.2,0,0.4-0.1,0.5-0.1c0-0.1,0-0.3-0.1-0.5c-0.1-0.3-0.2-0.6-0.4-0.7
		c-0.2-0.1-0.5-0.1-0.9-0.1c-0.8,0.2-1.5,0.5-2,0.9L64.4,20.6z M68.9,24.1l-0.2-0.9c-0.2,0-0.4,0.1-0.5,0.1
		c-1.1,0.2-1.6,0.6-1.5,1.2c0.1,0.3,0.2,0.4,0.4,0.5c0.2,0.1,0.4,0.1,0.7,0.1C68.4,25,68.8,24.7,68.9,24.1z"/>
</g>
<g>
	<path class="st1" d="M23.6,82.5l-0.3-1.2l0.8-0.2c0.3-0.1,0.6-0.2,0.7-0.4c0.2-0.2,0.2-0.4,0.2-0.6c-0.1-0.5-0.5-0.6-1.3-0.4
		c-0.6,0.1-1.1,0.4-1.5,0.8l-0.7-1.3c0.6-0.5,1.4-0.9,2.4-1.1c1.6-0.3,2.5,0.1,2.7,1.2c0.1,0.3,0,0.7-0.1,1s-0.3,0.6-0.7,0.8v0.1
		c0.9,0,1.5,0.5,1.7,1.4c0.1,0.6,0,1.2-0.4,1.7s-1.1,0.8-2.1,1c-0.9,0.2-1.6,0.2-2.3,0l0.1-1.5c0.5,0.2,1.2,0.2,1.8,0
		c0.8-0.2,1.2-0.5,1.1-1.1c-0.1-0.2-0.2-0.4-0.4-0.5c-0.2-0.1-0.7,0-1.2,0.1L23.6,82.5z"/>
	<path class="st1" d="M28,77.8c0.7-0.5,1.6-0.9,2.8-1.2c0.9-0.2,1.6-0.1,2,0.2c0.5,0.3,0.8,0.9,0.9,1.7c0.1,0.3,0.1,0.8,0.2,1.4
		c0.1,0.6,0.2,1.1,0.2,1.4c0.2,0.8,0.4,1.4,0.7,1.8l-1.5,0.3l-0.5-0.9h-0.1c-0.3,0.8-0.9,1.3-1.8,1.5c-0.6,0.1-1.2,0.1-1.6-0.2
		c-0.5-0.3-0.8-0.7-0.9-1.3c-0.3-1.5,0.7-2.5,3-3c0.2,0,0.4-0.1,0.5-0.1c0-0.1,0-0.3-0.1-0.5c-0.1-0.3-0.2-0.6-0.4-0.7
		c-0.2-0.1-0.5-0.1-0.9-0.1c-0.8,0.2-1.5,0.5-2,0.9L28,77.8z M32.5,81.4l-0.2-0.9c-0.2,0-0.4,0.1-0.5,0.1c-1.1,0.2-1.6,0.6-1.5,1.2
		c0.1,0.3,0.2,0.4,0.4,0.5c0.2,0.1,0.4,0.1,0.7,0.1C31.9,82.3,32.3,81.9,32.5,81.4z"/>
	<path class="st1" d="M39.9,80.4l1.9-0.4l-1.2-5.4v-1l-0.5,0.9l-1,1.1l-1-0.9l2.6-3.2l1-0.2l1.8,8.2l1.9-0.4l0.3,1.5l-5.5,1.2
		L39.9,80.4z"/>
	<path class="st1" d="M50.6,77.7c0.3-0.4,0.3-0.8,0.2-1.3c-0.2-1.1-1.1-1.4-2.5-1.1l-1.1,0.3l-1.1-5l4.7-1l0.4,1.7L48,72l0.4,1.8
		l0.5-0.2c0.9-0.2,1.7,0,2.3,0.4s1.1,1.1,1.3,2c0.2,1,0.1,1.9-0.5,2.6c-0.5,0.7-1.4,1.2-2.4,1.4c-0.8,0.2-1.6,0.2-2.2,0.1l0.2-1.6
		c0.5,0.1,1,0.1,1.7-0.1C49.9,78.3,50.3,78.1,50.6,77.7z"/>
	<path class="st1" d="M63.8,73.5l-0.2-1.4h-0.1l-0.3,1.3l-0.8,2.4l-0.6,0.1l-1.9-1.8L59.1,73H59l0.5,1.4l0.7,3.1l-1.6,0.3L57.1,71
		l1.8-0.4l2.1,2.2l0.6,0.8h0.1l0.2-1l0.9-2.9l1.9-0.4l1.5,6.8l-1.7,0.4L63.8,73.5z"/>
	<path class="st1" d="M73.1,74.2c-0.2,0.3-0.6,0.6-1,0.8c-0.4,0.2-0.9,0.4-1.4,0.5c-1.1,0.2-1.9,0.1-2.6-0.4s-1.1-1.3-1.4-2.5
		s-0.2-2.1,0.3-2.9c0.4-0.7,1.2-1.2,2.2-1.4c0.8-0.2,1.5-0.1,2.1,0.2s1,1,1.2,1.9c0.1,0.4,0.1,0.9,0.1,1.3l-4.1,0.9
		c0.2,0.6,0.4,1,0.7,1.2c0.3,0.2,0.8,0.3,1.4,0.2c0.7-0.1,1.2-0.4,1.6-0.9L73.1,74.2z M68.3,71.6l2.5-0.5V71c0-0.1,0-0.1,0-0.1
		c-0.2-0.9-0.7-1.2-1.4-1.1C68.6,69.9,68.2,70.5,68.3,71.6z"/>
	<path class="st1" d="M79.4,73c-0.5,0.5-1.2,0.9-2.1,1.1c-2,0.4-3.2-0.6-3.8-3c-0.2-1.2-0.2-2.1,0.2-2.8c0.4-0.7,1.1-1.2,2.1-1.4
		c0.8-0.2,1.5-0.2,2.1,0l-0.1,1.5c-0.5-0.1-0.9-0.1-1.4,0c-1,0.2-1.4,1-1.1,2.4c0.1,0.6,0.4,1.1,0.7,1.4c0.3,0.3,0.8,0.4,1.3,0.3
		s0.9-0.3,1.2-0.7L79.4,73z"/>
	<path class="st1" d="M83.5,69.9l-0.8,0.3l-0.8,2.7l-2.1,0.5l0.9-2.4l0.6-0.7c-0.5,0-0.9-0.1-1.3-0.4s-0.6-0.7-0.7-1.2
		c-0.2-0.8,0-1.5,0.4-2c0.5-0.5,1.3-0.9,2.4-1.1c0.7-0.2,1.5-0.2,2.3-0.3l1.5,6.8l-1.8,0.4L83.5,69.9z M83.3,68.9L82.9,67
		c-0.2,0-0.4,0-0.7,0c-0.9,0.2-1.2,0.6-1.1,1.3c0.1,0.7,0.7,0.9,1.7,0.7L83.3,68.9z"/>
	<path class="st1" d="M94.3,71.9L93,72.1l-0.5-1.5l-5.2,1.1l-1.5-6.8l1.8-0.4l1.1,5.3l2.1-0.5l-1-5.3l1.8-0.4l1.1,5.3l1-0.2
		L94.3,71.9z"/>
	<path class="st1" d="M100.3,68.3c-0.2,0.3-0.6,0.6-1,0.8c-0.4,0.2-0.9,0.4-1.4,0.5c-1.1,0.2-1.9,0.1-2.6-0.4s-1.1-1.3-1.4-2.5
		s-0.2-2.1,0.3-2.9c0.4-0.7,1.2-1.2,2.2-1.4c0.8-0.2,1.5-0.1,2.1,0.2s1,1,1.2,1.9c0.1,0.4,0.1,0.9,0.1,1.3l-4.1,0.9
		c0.2,0.6,0.4,1,0.7,1.2c0.3,0.2,0.8,0.3,1.4,0.2c0.7-0.1,1.2-0.4,1.6-0.9L100.3,68.3z M95.6,65.7l2.5-0.5v-0.1c0-0.1,0-0.1,0-0.1
		c-0.2-0.9-0.7-1.2-1.4-1.1C95.8,64,95.5,64.6,95.6,65.7z"/>
	<path class="st1" d="M100.5,61.8c0.9-0.3,1.8-0.5,2.6-0.7c1-0.2,1.7-0.2,2.2,0s0.8,0.6,0.9,1.2c0.1,0.3,0,0.7-0.1,1
		s-0.4,0.6-0.7,0.8v0.1c1,0,1.6,0.5,1.8,1.4c0.1,0.7,0,1.3-0.5,1.7c-0.5,0.5-1.3,0.8-2.4,1c-0.8,0.2-1.6,0.3-2.4,0.4L100.5,61.8z
		 M103.7,64c0.3-0.1,0.5-0.2,0.7-0.4s0.2-0.4,0.2-0.6c-0.1-0.2-0.2-0.4-0.4-0.5c-0.2-0.1-0.5-0.1-0.9,0c-0.2,0-0.4,0.1-0.8,0.2
		l0.3,1.4L103.7,64z M103.4,66.8c0.2,0,0.5,0,0.8-0.1c0.5-0.1,0.8-0.2,1-0.4c0.2-0.2,0.2-0.4,0.2-0.7c-0.1-0.5-0.6-0.7-1.4-0.5
		l-0.9,0.2L103.4,66.8z"/>
	<path class="st1" d="M119.4,66.4l-1.3,0.3l-0.5-1.5l-4.6,1l0.1,1.6l-1.3,0.3l-0.7-3.1l0.8-0.2c0.1-0.2,0.2-0.5,0.2-0.9
		c0.1-0.4,0.1-1,0-1.8c0-0.9-0.2-1.8-0.4-2.8l4.8-1l1.1,5.3l1-0.2L119.4,66.4z M116,64l-0.8-3.8l-1.4,0.3c0.1,0.7,0.2,1.5,0.2,2.2
		c0,0.8,0,1.4-0.2,1.8L116,64z"/>
	<path class="st1" d="M119.3,58.5c0.4-0.8,1.2-1.2,2.2-1.5c1.1-0.2,1.9-0.1,2.6,0.5c0.7,0.5,1.1,1.4,1.4,2.5
		c0.2,1.2,0.2,2.1-0.3,2.9c-0.4,0.8-1.1,1.2-2.2,1.5c-1.1,0.2-1.9,0.1-2.6-0.5c-0.7-0.5-1.2-1.4-1.4-2.5
		C118.8,60.2,118.9,59.2,119.3,58.5z M121.5,62.4c0.3,0.3,0.7,0.4,1.2,0.3c0.9-0.2,1.2-1,0.9-2.4c-0.3-1.4-0.9-2-1.8-1.8
		s-1.2,1-0.9,2.4C121,61.6,121.2,62.1,121.5,62.4z"/>
	<path class="st1" d="M131.2,60.7l1.9-0.4l-1.2-5.4v-1l-0.5,0.9l-1,1.1l-1-0.9l2.6-3.2l1-0.2l1.8,8.2l1.9-0.4L137,61l-5.5,1.2
		L131.2,60.7z"/>
	<path class="st1" d="M141.9,58.1c0.3-0.4,0.3-0.8,0.2-1.3c-0.2-1.1-1.1-1.4-2.5-1.1l-1.1,0.3l-1.1-5l4.7-1l0.4,1.7l-3.2,0.7
		l0.4,1.8l0.5-0.2c0.9-0.2,1.7,0,2.3,0.4s1.1,1.1,1.3,2c0.2,1,0.1,1.9-0.5,2.6c-0.5,0.7-1.4,1.2-2.4,1.4c-0.8,0.2-1.6,0.2-2.2,0.1
		l0.2-1.6c0.5,0.1,1,0.1,1.7-0.1C141.2,58.7,141.6,58.4,141.9,58.1z"/>
	<path class="st1" d="M146.1,57.3c0.2-0.2,0.4-0.4,0.7-0.5s0.6,0,0.9,0.1c0.2,0.1,0.4,0.4,0.5,0.7s0,0.6-0.1,0.8
		c-0.2,0.2-0.4,0.4-0.8,0.5c-0.3,0.1-0.6,0-0.9-0.1c-0.2-0.1-0.4-0.4-0.5-0.7C145.9,57.8,146,57.5,146.1,57.3z"/>
	<path class="st1" d="M148.6,49.6c0.4-1,1.1-1.5,2.2-1.8c1.1-0.2,2.1,0,2.8,0.7s1.3,1.9,1.6,3.6c0.4,1.7,0.3,3-0.1,3.9
		s-1.1,1.6-2.2,1.8c-2.2,0.5-3.7-0.9-4.4-4.3C148.1,51.9,148.2,50.6,148.6,49.6z M152.6,56.3c0.5-0.1,0.9-0.5,1-1.1s0.1-1.5-0.2-2.7
		c-0.2-1.2-0.6-2-0.9-2.5c-0.4-0.5-0.8-0.7-1.4-0.6c-0.5,0.1-0.9,0.5-1,1.1s-0.1,1.5,0.2,2.7C150.8,55.5,151.6,56.5,152.6,56.3z"/>
	<path class="st1" d="M162.8,54.7c-0.5,0.7-1.1,1.2-2.1,1.4s-1.8,0.1-2.6-0.4s-1.2-1.3-1.5-2.5c-0.4-1.7-0.2-3.3,0.5-4.6
		s1.7-2.3,3-2.8l0.7,1.3c-0.8,0.3-1.5,0.9-2,1.6c-0.5,0.8-0.7,1.6-0.7,2.4c0.3-0.6,0.9-1,1.6-1.2c0.8-0.2,1.6-0.1,2.2,0.3
		c0.6,0.4,1,1.1,1.2,2C163.4,53.2,163.3,54,162.8,54.7z M159.7,51.5c-0.3,0.1-0.6,0.2-0.9,0.4c-0.2,0.2-0.4,0.4-0.4,0.7
		c0,0.1,0,0.3,0.1,0.5c0.1,0.5,0.3,0.9,0.7,1.2c0.3,0.3,0.8,0.4,1.3,0.3c0.4-0.1,0.7-0.3,0.9-0.7s0.3-0.8,0.2-1.2
		C161.3,51.7,160.7,51.3,159.7,51.5z"/>
</g>
<g>
	<path class="st1" d="M26.3,61.3l3.9-0.8l-2.1-9.9v-2.1l-1.1,2l-1.9,2l-2.3-2l5.3-6.7l2.5-0.5l3.5,16.4l3.8-0.8l0.8,3.6L27,65
		L26.3,61.3z"/>
	<path class="st1" d="M49.8,55.8c0.4-0.6,0.5-1.4,0.4-2.1c-0.2-1-0.6-1.6-1.3-1.9c-0.7-0.3-1.7-0.3-3,0l-2,0.4l-0.5-2.4l2.2-4.6
		l1.5-1.7l-2.3,0.8l-4.4,0.9l-0.8-3.6l11.1-2.4l0.5,2.5l-2.7,5.5l-1.2,1v0.1l1.3-0.4c1.4-0.1,2.6,0.2,3.7,0.9c1.1,0.7,1.8,2,2.2,3.7
		c0.5,2.2,0.2,4-1,5.3c-1.1,1.4-2.7,2.3-4.9,2.8s-3.9,0.5-5.2,0.2l0.4-3.8c1.2,0.3,2.5,0.3,3.8,0.1C48.6,56.9,49.3,56.5,49.8,55.8z"
		/>
	<path class="st1" d="M64.5,38.5c0.8-2,2.4-3.2,4.7-3.7c2.4-0.5,4.3-0.1,5.8,1.3c1.5,1.4,2.6,3.9,3.4,7.4c0.7,3.4,0.7,6.1-0.2,8.1
		c-0.8,2-2.4,3.2-4.7,3.7c-4.7,1-7.8-1.9-9.2-8.7C63.6,43.1,63.6,40.5,64.5,38.5z M70.3,50.5c0.7,1,1.5,1.4,2.5,1.2s1.6-0.9,1.8-2
		c0.2-1.1,0.1-2.9-0.5-5.2c-0.5-2.2-1.1-3.8-1.7-4.8c-0.7-1-1.5-1.4-2.5-1.2s-1.6,0.9-1.8,2.1c-0.2,1.2-0.1,2.9,0.4,5.1
		C69.1,47.9,69.7,49.5,70.3,50.5z"/>
	<path class="st1" d="M81.5,34.8c0.8-2,2.4-3.2,4.7-3.7c2.4-0.5,4.3-0.1,5.8,1.3c1.5,1.4,2.6,3.9,3.4,7.4c0.7,3.4,0.7,6.1-0.2,8.1
		c-0.8,2-2.4,3.2-4.7,3.7c-4.7,1-7.8-1.9-9.2-8.7C80.6,39.5,80.7,36.8,81.5,34.8z M87.4,46.8c0.7,1,1.5,1.4,2.5,1.2s1.6-0.9,1.8-2
		s0.1-2.9-0.5-5.2c-0.5-2.2-1.1-3.8-1.7-4.8c-0.7-1-1.5-1.4-2.5-1.2s-1.6,0.9-1.8,2.1c-0.2,1.2-0.1,2.9,0.4,5.1
		C86.1,44.2,86.7,45.8,87.4,46.8z"/>
	<path class="st1" d="M98.6,31.1c0.8-2,2.4-3.2,4.7-3.7c2.4-0.5,4.3-0.1,5.8,1.3s2.6,3.9,3.4,7.4c0.7,3.4,0.7,6.1-0.2,8.1
		c-0.8,2-2.4,3.2-4.7,3.7c-4.7,1-7.8-1.9-9.2-8.7C97.7,35.8,97.8,33.1,98.6,31.1z M104.4,43.1c0.7,1,1.5,1.4,2.5,1.2s1.6-0.9,1.8-2
		c0.2-1.1,0.1-2.9-0.5-5.2c-0.5-2.2-1.1-3.8-1.7-4.8c-0.7-1-1.5-1.4-2.5-1.2c-1,0.2-1.6,0.9-1.8,2.1c-0.2,1.2-0.1,2.9,0.4,5.1
		C103.2,40.5,103.8,42.1,104.4,43.1z"/>
	<path class="st1" d="M121.7,33.4l2.3-0.5l-1.9-8.9c1.7-0.7,3.4-1.3,5.2-1.7c0.9-0.2,1.7-0.3,2.4-0.4s1.5,0,2.2,0.1s1.4,0.4,1.9,0.7
		c0.5,0.4,1,0.9,1.5,1.5c0.4,0.7,0.7,1.5,1,2.5c0.3,1.4,0.2,2.7-0.3,3.8c-0.5,1.1-1.2,2-2.1,2.6c-0.9,0.6-2,1.1-3.3,1.3
		c-0.9,0.2-1.5,0.3-1.8,0.3l0.3,1.6l4.4-1l0.6,2.9l-4.4,1l0.7,3.2l-4.1,0.9l-0.7-3.2l-2.3,0.5l-0.6-2.9l2.3-0.5l-0.3-1.5l-2.3,0.5
		L121.7,33.4z M126.9,26.4l1.2,5.5c0.3,0,0.7,0,1.2-0.1c1-0.2,1.8-0.7,2.3-1.3c0.5-0.7,0.7-1.5,0.4-2.5c-0.4-1.8-1.6-2.5-3.5-2.1
		C127.8,26,127.3,26.2,126.9,26.4z"/>
</g>
<polygon class="st2" points="59.5,108.1 51.3,108.1 51.3,99.8 44.7,99.8 44.7,108.1 36.5,108.1 36.5,114.6 44.7,114.6 44.7,122.8 
	51.3,122.8 51.3,114.6 59.5,114.6 "/>
<path class="st0" d="M51.3,99.8v8.2h8.2v6.5h-8.2v8.2h-6.5v-8.2h-8.2v-6.5h8.2v-8.2H51.3 M51.3,97h-6.5c-1.6,0-2.8,1.3-2.8,2.8v5.4
	h-5.4c-1.6,0-2.8,1.3-2.8,2.8v6.5c0,1.6,1.3,2.8,2.8,2.8h5.4v5.4c0,1.6,1.3,2.8,2.8,2.8h6.5c1.6,0,2.8-1.3,2.8-2.8v-5.4h5.4
	c1.6,0,2.8-1.3,2.8-2.8v-6.5c0-1.6-1.3-2.8-2.8-2.8h-5.4v-5.4C54.1,98.3,52.8,97,51.3,97L51.3,97z"/>
</svg>
