<svg xmlns="http://www.w3.org/2000/svg" id="Слой_1" width="176.3" height="125.7">
  <style>
    .st0{fill:#5AAA2D;} .st1{fill:#FFFFFF;} .st2{fill:#02569A;}
  </style>
  <path d="M175.9 46.8C171.7 19.3 140.1 0 99.1 0c-6.5 0-13.2.5-19.8 1.5C56 5 35.1 14.3 20.2 27.7 5.1 41.3-1.9 57.6.5 73.4c4.2 27.6 35.8 46.8 76.8 46.8 6.5 0 13.2-.5 19.8-1.5 23.2-3.5 44.2-12.8 59-26.2 15.1-13.5 22.2-29.8 19.8-45.7z" class="st0"/>
  <path d="M61.3 90.1c-.1.6-.1 1.2 0 1.7s.6 1.1 1.2 1.1c.8-.1 1.6-1.4 1.9-1.8.6-.4.2.5 0 .7-.4.6-1.5 1.8-2.3 1.9-.8.2-2-.3-2.2-1.1-.7 1.8-1.8 2.9-3.8 2.9-2.3-.4-3.3-4.6-2.7-6.6.1-.9 1-1.8 2-1.4.4.1.6.4.7.8.1.4 0 .8 0 1.1-.1.6-.6 2.8 0 3.5.2.5.7.7 1.1.6.7-.2 1.1-.6 1.5-1.1.5-.8.6-2.4.7-3.4.1-.5.4-1.2 1.1-1.2.8.3 1 1.5.8 2.3zm10.3-1.3c.1-.7 1.3-1.1 2.3-.6 1.2.6 1.9-.1 2.3-.8.8-1.6 1.1-3.2 2-4.7 1.4 1.9 2.6 5.5 4.1 5.1 1.2-.6 1.2-1.2 1.8-1.6.3 1-.4 1.8-1.1 2.1-1.6.8-2.9 0-3.6-1.6-.2-.1-.4-.6-.7-.8 0-.1-.1-.2-.1 0-1.3 2.3-1.1 5.6-4.5 5.5-1.1 0-2.7-.7-2.8-2v-.1l.3-.5z" class="st1"/>
  <path d="M86 86.6c.1.3.4.4.7.5 1.5.2 2.2-.3 3.1-.8.5-.2 1.5-1.3 2-1.4.2-.1.1.1.2.2-.8 1.4-3.5 3-5.2 3.2-1.8.3-2.9-.8-3.3-2.2-.4-1.4 0-3.2 1.2-4.2 1.1-1 2.8-1.4 3.7-.7 1.4 1.4.2 4.9-2.1 5.3l-.3.1zm-.4-.7c.4-.3 1.4-1.8 1.3-2.7-.1-.5-.5-.6-.9-.3-.7.8-.9 2.1-.4 3z" class="st1"/>
  <path d="M98.4 81.4c.1-.8 1-2.2 1.7-2.4 1.2-.4 2 .2 2.4 1.3.5 1.1 1.5 2.6 3 1.5.3-.3.5-.6.8-.9.3-.8.7-.1.4.5-1.4 2.8-4.6 1.5-5.3 0-.6-.3-1.1-.7-1.4.5-.3 1.1-.8 2.9-1.7 3.3-1.3.5-.8-3.6-2.3-3.4-1.1.2-2 3-2.2 4.2-.3.7-.5 1.7-1.3 2-1.2.4-1.6-3.3-1.5-6.2-.2-1.8.2-2.5 1.2-3.2 1.6-1.1 1.9.7 2 1.8v.1c.5-1.7 2.9-3.4 3.7-1.9.1.8.4 1.8.5 2.8zm-3.2-4.1c.1 0 .2 0 .2-.1 1.7-.1 2.5-1.5 3.9-2.4.3-.2.5-.4.8-.6.3-.3.8-.3 1.2-.4.2.1.5 0 .7.2-1.3 2.2-4.2 3-6.5 3.7l-.3-.4z" class="st1"/>
  <path d="M107.7 76.6c.5.1 1 .9.5 1.4-.2.8-.4 2.2.7 2.7.7.3 1.2 0 1.5-.4.5-.5.3-2.4-.1-3-.8.1-1.6-.2-1.8-1.1 0-.8.3-1.1 1-1.2.9 0 1.1.3 1.6 1l.1-.1c.3-.1.3-.4.5-.6.1-.2.5-.3.4 0 .3.6-.4.9-.7 1.3 1 1.2 1.3 3.6.3 5-.6.5-1.2.7-2 .9-1.8.7-4.6-.8-4.4-3-.2-.9 0-1.8.8-2.5.2-.2.4-.4.7-.4.3-.1.6-.1.9 0zm2.3.2c0-.3-.1-.9-.5-1-.3-.1-.2.2-.2.5 0 .1.1.2.1.2 0 .1 0 .2.1.2 0 0 .3.1.5.1zM77.3 99.1l-.1-.6v-.4c-.1-.2.1-.4.1-.6.1 0 .1 0 0-.1.5-.2 1-.3 1.5-.4.2-1.8.9-3.6 2.1-4.8.6-.8 1.9-1.3 2.7-.7.5.8.4 1.9.5 2.9-.1 2.5-1.7 4-3.6 4.9.1.6.3 1.3.7 1.9.6.7 1.2.9 1.8.8.2 0 .5-.3.7-.7-.4.1-.8.1-1.1 0-.5 0-1-.5-1.1-.9v-.5c.8-.6 2.6-.3 3 .7.7-.3 1.3-.6 1.8-1 .1-.1.1.1.1.1-.1.5-.9 1.1-1.8 1.4 0 .4-.2.7-.4 1.1-.6.5-1.1 1.3-2 1.2-1.8-.6-2.8-1.9-3.3-3.5-.4.1-.8.2-1.3.2l-.3-1zm0 .4l-.2-.7.1.2c.1.3.2.5.1.5zm3.5-2.9c1.3-.9 1.6-1.9 1.2-2.5-.3.4-.3.3-.8 1-.1.5-.3 1-.4 1.5zm3.1 4.1s-.1 0 0 0c-.3-.5-.7-.3-1.1-.2-.1 0 0 .1 0 .1.3.1.7.1 1.1.1zm11-8.4h.2l.2-.1h.1l.3.1c.7-.1 1.1.4 1.2 1 .1.4.1.9 0 1.3v.2s0 .1.1 0c.5-.6.9-.8 1.2-.9 1.5-.4 2.2 2.7 3.7 3.1h.1c.1 0 .1-.1.2-.3 1-.3 1-1.9 1.6-2h.1c.2 1.3-.9 2.9-2.2 3.3-.1 0-.2.1-.2.1-.7.2-1.6-.3-1.9-.8-.6-.5-.9-1.2-1.8-1 0-.1-.1-.1-.2-.1-1.1.5-1.1 1.8-1.1 3.4 0 .6 0 1.4-.9 1.6h-.2c-.6.1-.9-.6-1.2-1.7-.7-2.2-.5-6.5.7-7.2z" class="st1"/>
  <path d="M105.1 91.3c.5.1 1 .9.5 1.4-.2.8-.4 2.2.7 2.7.7.3 1.2 0 1.5-.4.5-.5.3-2.4-.1-3-.8.1-1.6-.2-1.8-1.1 0-.8.3-1.1 1-1.2.9 0 1.1.3 1.6 1l.1-.1c.3-.1.3-.4.5-.6.1-.2.5-.3.4 0 .3.6-.4.9-.7 1.3 1 1.2 1.3 3.6.3 5-.6.5-1.2.7-2 .9-1.8.7-4.6-.8-4.4-3-.2-.9 0-1.8.8-2.5.2-.2.4-.4.7-.4.3-.1.6-.1.9 0zm2.3.1c0-.3-.1-.9-.5-1-.3-.1-.2.2-.2.5 0 .1.1.2.1.2 0 .1 0 .2.1.2s.4.1.5.1zm9 2.9c-.1.3-1.2.8-2.3 1-.2 0-.4.1-.5.1-1.2.2-2.1-.5-2.2-1.6-.1-.3 0-.6 0-.9.2-1.9 1.4-3.9 3.4-4.2h.1c1.2-.2 2 0 2.5.9l.3.5c.5.9.9 1.6.9 3.3.9-.7 2.1-1.4 2.7-1.5 0 .1.1.4 0 .5-.7.3-2.5 1.6-2.7 1.7 0 .5-.1.9-.1 1.4-.2.9-1.1 2.5-1.7 3-.1.1-.3.1-.4.2l-.3.1c-.2 0-.5 0-.6-.2 0 0-.1 0-.1-.1v-.4c-.6-1.8.7-2.9 1.8-3.7v-.3l-.1-.7c-.1.4-.4.6-.7.9zm.5-1.8c-.3-.7-.7-1.3-1.1-1.7-.1-.1-.3-.1-.5-.1-.3 0-.6.2-.9.5-.4.3-.4 1.1-.4 1.5v.1c.1.3.3.4.5.3.4 0 .7-.7.9-.9.1-.1.5-.2.6-.2.4.1.6.3.9.5zm-.4 3.7c-.1.2-.2.5-.2.7 0 .2.2.3.3.3.2 0 .3-.1.4-.3.2-.3.2-.4.3-.8.1-.4.1-.8.1-1.2-.4.6-.7.9-.9 1.3z" class="st1"/>
  <path d="M127.6 87.8c.1 1-.3 1.7-.1 2.6.1.3.2.6.5.8 1.1.5 1.7-.5 2.3-1 .2-.2.3-.6.6-.7.3-.2.6 0 .3.4-.5.8-1.3 1.7-2.3 1.9-.6.1-1.1.2-1.7.1-.5-.1-.7-.4-.8-.9 0-.2-.1-.4-.1-.5-.4 1.1-2 3.1-3.5 3.5l-.1.1h-.2c-.8.2-1.6-.6-2.1-1.2 0-.1-.1-.2-.1-.4-.3-1.4.3-2.9.8-4.2.3-.4.5-.8.8-1.1.6-.4 1.2-.6 1.7-.6 1.1-.3 1.7-.1 2.2.7.2-.4.3-1 1-1 .7.3.8.9.8 1.5zm-3.2 1.5c-.6-.6-1.5-.1-1.8.6-.1.3-.3.9-.3 1.3.1 1.3 1.1 1.3 1.8.7.5-.4.7-.9 1-1.4l.3-1.1c-.3.1-.7.2-1-.1z" class="st1"/>
  <path d="M138.3 87.4c.1.6.8 1.1 1.5.8 1.1-.3 1.6-1 2.5-1.6.5-.4.7-.2.3.3-.8 1.2-1.7 2-3.1 2.3h-.1c-1.7 0-2.6-.6-2.9-1.8l-.2-.4c-.3-.7-.5-.9-.9-.8-.5.1-1.6 2.2-1.9 3.1-.4 1.3-.5 2.3-.6 3.9-.2 2.1.1 3.7-1.1 4h-.2c-.7 0-1-1.4-1-2.5-.3-3.7-.6-8.6-.4-11.9 0-.8.6-1.6 1.4-1.8.6-.1 1.2.2 1.4 1.2.2.9-.9 4.5-.8 7.1.6-3.2 1.8-5.4 2.8-5.6 1.8-.1 2.7 2 3.3 3.7z" class="st1"/>
  <path d="M143.4 82.3c.5.1 1 .9.5 1.4-.2.8-.4 2.2.7 2.7.7.3 1.2 0 1.5-.4.5-.5.3-2.4-.1-3-.8.1-1.6-.2-1.8-1.1 0-.8.3-1.1 1-1.2.9 0 1.1.3 1.6 1l.1-.1c.3-.1.3-.4.5-.6.1-.2.5-.3.4 0 .3.6-.4.9-.7 1.3 1 1.2 1.3 3.6.3 5-.6.5-1.2.7-2 .9-1.8.7-4.6-.8-4.4-3-.2-.9 0-1.8.8-2.5.2-.2.4-.4.7-.4.3-.1.6-.1.9 0zm2.3.1c0-.3-.1-.9-.5-1-.3-.1-.2.2-.2.5 0 .1.1.2.1.2 0 .1 0 .2.1.2.1.1.4.1.5.1zm7.2-1.7c0 1.1-.4 2.1-.5 3.7 1.2-1.6 2.6-3.3 4.1-5.3.1-.3.4-.6.7-.6.2 0 .4 0 .5.2-.5.9-.9 2-1.4 2.7-.3.5-.7 1-1.2 1.7.6 0 .5.3 1 .7.9.8 1.7 1.2 2.7 1.1.9-.3 1.8-.7 1.9-1.8 0-.2.1-.2.2-.3.1 0 .3 0 .3.2-.1 1-.8 2.1-1.8 2.3h-.1c-.6.1-1.3.3-2.2.2-1.3-.3-2-.4-3-1.2-.7.9-1.6 2.7-2.2 3.4-.8.4-1.3.6-1.5-.3-.1-.6-.3-1.1-.4-1.7-.4-2.5-.6-4.5.3-5.9l.2-.2c.2-.2.4-.3.6-.3.3-.1.6 0 .9.1h.1c.2-.1.4.1.7.1l.1 1.2zM39.1 28.5l-.5.1.9 4.1-1.9.4-2.1-9.6 1.9-.4.9 4.2.4-.3 1.8-4.6 2.1-.5-1.9 4.6-.6.7.9.4 4.2 3.8-2.4.6-3.7-3.5zm5.5-3.7c.7-.5 1.6-.9 2.8-1.2.9-.2 1.6-.1 2 .2.5.3.8.9.9 1.7.1.3.1.8.2 1.4.1.6.2 1.1.2 1.4.2.8.4 1.4.7 1.8l-1.4.3-.5-.9h-.1c-.3.8-.9 1.3-1.8 1.5-.6.1-1.2.1-1.6-.2-.5-.3-.8-.7-.9-1.3-.3-1.5.7-2.5 3-3 .2 0 .4-.1.5-.1 0-.1 0-.3-.1-.5-.1-.3-.2-.6-.4-.7s-.5-.1-.9-.1c-.8.2-1.5.5-2 .9l-.6-1.2zm4.5 3.6l-.2-.9c-.2 0-.4.1-.5.1-1.1.2-1.6.6-1.5 1.2.1.3.2.4.4.5s.4.1.7.1c.6-.1 1-.5 1.1-1zm2.3-5.5l1.3-.3.4.8h.1c.3-.8.9-1.3 1.8-1.5.9-.2 1.6 0 2.1.4.5.5 1 1.3 1.2 2.5.3 1.2.2 2.2-.2 3S57 29.1 56 29.3c-.5.1-.9.1-1.3 0l.6 2.8-1.8.4-2.1-9.6zm2.2 2l.6 2.8c.3.2.7.2 1.1.1.5-.1.9-.4 1-.8.2-.4.2-1 0-1.9-.3-1.3-.8-1.8-1.7-1.6-.5.2-.9.7-1 1.4zm10.3-3l-1.9.4 1.1 5.3-1.8.4-1.1-5.3-1.9.4-.3-1.6 5.7-1.2.2 1.6zm.5-1.3c.7-.5 1.6-.9 2.8-1.2.9-.2 1.6-.1 2 .2.5.3.8.9.9 1.7.1.3.1.8.2 1.4s.2 1.1.2 1.4c.2.8.4 1.4.7 1.8l-1.5.3-.5-.9h-.1c-.3.8-.9 1.3-1.8 1.5-.6.1-1.2.1-1.6-.2-.5-.3-.8-.7-.9-1.3-.3-1.5.7-2.5 3-3 .2 0 .4-.1.5-.1 0-.1 0-.3-.1-.5-.1-.3-.2-.6-.4-.7-.2-.1-.5-.1-.9-.1-.8.2-1.5.5-2 .9l-.5-1.2zm4.5 3.5l-.2-.9c-.2 0-.4.1-.5.1-1.1.2-1.6.6-1.5 1.2.1.3.2.4.4.5.2.1.4.1.7.1.6-.1 1-.4 1.1-1zM23.6 82.5l-.3-1.2.8-.2c.3-.1.6-.2.7-.4.2-.2.2-.4.2-.6-.1-.5-.5-.6-1.3-.4-.6.1-1.1.4-1.5.8l-.7-1.3c.6-.5 1.4-.9 2.4-1.1 1.6-.3 2.5.1 2.7 1.2.1.3 0 .7-.1 1s-.3.6-.7.8v.1c.9 0 1.5.5 1.7 1.4.1.6 0 1.2-.4 1.7s-1.1.8-2.1 1c-.9.2-1.6.2-2.3 0l.1-1.5c.5.2 1.2.2 1.8 0 .8-.2 1.2-.5 1.1-1.1-.1-.2-.2-.4-.4-.5-.2-.1-.7 0-1.2.1l-.5.2zm4.4-4.7c.7-.5 1.6-.9 2.8-1.2.9-.2 1.6-.1 2 .2.5.3.8.9.9 1.7.1.3.1.8.2 1.4.1.6.2 1.1.2 1.4.2.8.4 1.4.7 1.8l-1.5.3-.5-.9h-.1c-.3.8-.9 1.3-1.8 1.5-.6.1-1.2.1-1.6-.2-.5-.3-.8-.7-.9-1.3-.3-1.5.7-2.5 3-3 .2 0 .4-.1.5-.1 0-.1 0-.3-.1-.5-.1-.3-.2-.6-.4-.7-.2-.1-.5-.1-.9-.1-.8.2-1.5.5-2 .9l-.5-1.2zm4.5 3.6l-.2-.9c-.2 0-.4.1-.5.1-1.1.2-1.6.6-1.5 1.2.1.3.2.4.4.5.2.1.4.1.7.1.5-.1.9-.5 1.1-1zm7.4-1l1.9-.4-1.2-5.4v-1l-.5.9-1 1.1-1-.9 2.6-3.2 1-.2 1.8 8.2 1.9-.4.3 1.5-5.5 1.2-.3-1.4zm10.7-2.7c.3-.4.3-.8.2-1.3-.2-1.1-1.1-1.4-2.5-1.1l-1.1.3-1.1-5 4.7-1 .4 1.7-3.2.7.4 1.8.5-.2c.9-.2 1.7 0 2.3.4s1.1 1.1 1.3 2c.2 1 .1 1.9-.5 2.6-.5.7-1.4 1.2-2.4 1.4-.8.2-1.6.2-2.2.1l.2-1.6c.5.1 1 .1 1.7-.1.6-.1 1-.3 1.3-.7zm13.2-4.2l-.2-1.4h-.1l-.3 1.3-.8 2.4-.6.1-1.9-1.8-.8-1.1H59l.5 1.4.7 3.1-1.6.3-1.5-6.8 1.8-.4 2.1 2.2.6.8h.1l.2-1 .9-2.9 1.9-.4 1.5 6.8-1.7.4-.7-3zm9.3.7c-.2.3-.6.6-1 .8-.4.2-.9.4-1.4.5-1.1.2-1.9.1-2.6-.4s-1.1-1.3-1.4-2.5-.2-2.1.3-2.9c.4-.7 1.2-1.2 2.2-1.4.8-.2 1.5-.1 2.1.2s1 1 1.2 1.9c.1.4.1.9.1 1.3l-4.1.9c.2.6.4 1 .7 1.2.3.2.8.3 1.4.2.7-.1 1.2-.4 1.6-.9l.9 1.1zm-4.8-2.6l2.5-.5v-.2c-.2-.9-.7-1.2-1.4-1.1-.8.1-1.2.7-1.1 1.8zM79.4 73c-.5.5-1.2.9-2.1 1.1-2 .4-3.2-.6-3.8-3-.2-1.2-.2-2.1.2-2.8.4-.7 1.1-1.2 2.1-1.4.8-.2 1.5-.2 2.1 0l-.1 1.5c-.5-.1-.9-.1-1.4 0-1 .2-1.4 1-1.1 2.4.1.6.4 1.1.7 1.4.3.3.8.4 1.3.3s.9-.3 1.2-.7l.9 1.2zm4.1-3.1l-.8.3-.8 2.7-2.1.5.9-2.4.6-.7c-.5 0-.9-.1-1.3-.4s-.6-.7-.7-1.2c-.2-.8 0-1.5.4-2 .5-.5 1.3-.9 2.4-1.1.7-.2 1.5-.2 2.3-.3l1.5 6.8-1.8.4-.6-2.6zm-.2-1l-.4-1.9h-.7c-.9.2-1.2.6-1.1 1.3.1.7.7.9 1.7.7l.5-.1zm11 3l-1.3.2-.5-1.5-5.2 1.1-1.5-6.8 1.8-.4 1.1 5.3 2.1-.5-1-5.3 1.8-.4 1.1 5.3 1-.2.6 3.2zm6-3.6c-.2.3-.6.6-1 .8-.4.2-.9.4-1.4.5-1.1.2-1.9.1-2.6-.4s-1.1-1.3-1.4-2.5-.2-2.1.3-2.9c.4-.7 1.2-1.2 2.2-1.4.8-.2 1.5-.1 2.1.2s1 1 1.2 1.9c.1.4.1.9.1 1.3l-4.1.9c.2.6.4 1 .7 1.2.3.2.8.3 1.4.2.7-.1 1.2-.4 1.6-.9l.9 1.1zm-4.7-2.6l2.5-.5V65c-.2-.9-.7-1.2-1.4-1.1-.9.1-1.2.7-1.1 1.8zm4.9-3.9c.9-.3 1.8-.5 2.6-.7 1-.2 1.7-.2 2.2 0s.8.6.9 1.2c.1.3 0 .7-.1 1s-.4.6-.7.8v.1c1 0 1.6.5 1.8 1.4.1.7 0 1.3-.5 1.7-.5.5-1.3.8-2.4 1-.8.2-1.6.3-2.4.4l-1.4-6.9zm3.2 2.2c.3-.1.5-.2.7-.4s.2-.4.2-.6c-.1-.2-.2-.4-.4-.5-.2-.1-.5-.1-.9 0-.2 0-.4.1-.8.2l.3 1.4.9-.1zm-.3 2.8c.2 0 .5 0 .8-.1.5-.1.8-.2 1-.4.2-.2.2-.4.2-.7-.1-.5-.6-.7-1.4-.5l-.9.2.3 1.5zm16-.4l-1.3.3-.5-1.5-4.6 1 .1 1.6-1.3.3-.7-3.1.8-.2c.1-.2.2-.5.2-.9.1-.4.1-1 0-1.8 0-.9-.2-1.8-.4-2.8l4.8-1 1.1 5.3 1-.2.8 3zM116 64l-.8-3.8-1.4.3c.1.7.2 1.5.2 2.2 0 .8 0 1.4-.2 1.8l2.2-.5zm3.3-5.5c.4-.8 1.2-1.2 2.2-1.5 1.1-.2 1.9-.1 2.6.5.7.5 1.1 1.4 1.4 2.5.2 1.2.2 2.1-.3 2.9-.4.8-1.1 1.2-2.2 1.5-1.1.2-1.9.1-2.6-.5-.7-.5-1.2-1.4-1.4-2.5-.2-1.2-.1-2.2.3-2.9zm2.2 3.9c.3.3.7.4 1.2.3.9-.2 1.2-1 .9-2.4-.3-1.4-.9-2-1.8-1.8s-1.2 1-.9 2.4c.1.7.3 1.2.6 1.5zm9.7-1.7l1.9-.4-1.2-5.4v-1l-.5.9-1 1.1-1-.9 2.6-3.2 1-.2 1.8 8.2 1.9-.4.3 1.6-5.5 1.2-.3-1.5zm10.7-2.6c.3-.4.3-.8.2-1.3-.2-1.1-1.1-1.4-2.5-1.1l-1.1.3-1.1-5 4.7-1 .4 1.7-3.2.7.4 1.8.5-.2c.9-.2 1.7 0 2.3.4s1.1 1.1 1.3 2c.2 1 .1 1.9-.5 2.6-.5.7-1.4 1.2-2.4 1.4-.8.2-1.6.2-2.2.1l.2-1.6c.5.1 1 .1 1.7-.1.6-.1 1-.4 1.3-.7zm4.2-.8c.2-.2.4-.4.7-.5s.6 0 .9.1c.2.1.4.4.5.7s0 .6-.1.8c-.2.2-.4.4-.8.5-.3.1-.6 0-.9-.1-.2-.1-.4-.4-.5-.7 0-.3.1-.6.2-.8zm2.5-7.7c.4-1 1.1-1.5 2.2-1.8 1.1-.2 2.1 0 2.8.7s1.3 1.9 1.6 3.6c.4 1.7.3 3-.1 3.9s-1.1 1.6-2.2 1.8c-2.2.5-3.7-.9-4.4-4.3-.4-1.6-.3-2.9.1-3.9zm4 6.7c.5-.1.9-.5 1-1.1s.1-1.5-.2-2.7c-.2-1.2-.6-2-.9-2.5-.4-.5-.8-.7-1.4-.6-.5.1-.9.5-1 1.1s-.1 1.5.2 2.7c.5 2.3 1.3 3.3 2.3 3.1zm10.2-1.6c-.5.7-1.1 1.2-2.1 1.4s-1.8.1-2.6-.4-1.2-1.3-1.5-2.5c-.4-1.7-.2-3.3.5-4.6s1.7-2.3 3-2.8l.7 1.3c-.8.3-1.5.9-2 1.6-.5.8-.7 1.6-.7 2.4.3-.6.9-1 1.6-1.2.8-.2 1.6-.1 2.2.3.6.4 1 1.1 1.2 2 .3 1 .2 1.8-.3 2.5zm-3.1-3.2c-.3.1-.6.2-.9.4-.2.2-.4.4-.4.7 0 .1 0 .3.1.5.1.5.3.9.7 1.2.3.3.8.4 1.3.3.4-.1.7-.3.9-.7s.3-.8.2-1.2c-.3-1-.9-1.4-1.9-1.2zM26.3 61.3l3.9-.8-2.1-9.9v-2.1l-1.1 2-1.9 2-2.3-2 5.3-6.7 2.5-.5 3.5 16.4 3.8-.8.8 3.6L27 65l-.7-3.7zm23.5-5.5c.4-.6.5-1.4.4-2.1-.2-1-.6-1.6-1.3-1.9-.7-.3-1.7-.3-3 0l-2 .4-.5-2.4 2.2-4.6 1.5-1.7-2.3.8-4.4.9-.8-3.6 11.1-2.4.5 2.5-2.7 5.5-1.2 1v.1l1.3-.4c1.4-.1 2.6.2 3.7.9s1.8 2 2.2 3.7c.5 2.2.2 4-1 5.3-1.1 1.4-2.7 2.3-4.9 2.8s-3.9.5-5.2.2l.4-3.8c1.2.3 2.5.3 3.8.1 1-.2 1.7-.6 2.2-1.3zm14.7-17.3c.8-2 2.4-3.2 4.7-3.7 2.4-.5 4.3-.1 5.8 1.3 1.5 1.4 2.6 3.9 3.4 7.4.7 3.4.7 6.1-.2 8.1-.8 2-2.4 3.2-4.7 3.7-4.7 1-7.8-1.9-9.2-8.7-.7-3.5-.7-6.1.2-8.1zm5.8 12c.7 1 1.5 1.4 2.5 1.2s1.6-.9 1.8-2c.2-1.1.1-2.9-.5-5.2-.5-2.2-1.1-3.8-1.7-4.8-.7-1-1.5-1.4-2.5-1.2s-1.6.9-1.8 2.1c-.2 1.2-.1 2.9.4 5.1.6 2.2 1.2 3.8 1.8 4.8zm11.2-15.7c.8-2 2.4-3.2 4.7-3.7 2.4-.5 4.3-.1 5.8 1.3 1.5 1.4 2.6 3.9 3.4 7.4.7 3.4.7 6.1-.2 8.1-.8 2-2.4 3.2-4.7 3.7-4.7 1-7.8-1.9-9.2-8.7-.7-3.4-.6-6.1.2-8.1zm5.9 12c.7 1 1.5 1.4 2.5 1.2s1.6-.9 1.8-2 .1-2.9-.5-5.2c-.5-2.2-1.1-3.8-1.7-4.8-.7-1-1.5-1.4-2.5-1.2s-1.6.9-1.8 2.1c-.2 1.2-.1 2.9.4 5.1.5 2.2 1.1 3.8 1.8 4.8zm11.2-15.7c.8-2 2.4-3.2 4.7-3.7 2.4-.5 4.3-.1 5.8 1.3s2.6 3.9 3.4 7.4c.7 3.4.7 6.1-.2 8.1-.8 2-2.4 3.2-4.7 3.7-4.7 1-7.8-1.9-9.2-8.7-.7-3.4-.6-6.1.2-8.1zm5.8 12c.7 1 1.5 1.4 2.5 1.2s1.6-.9 1.8-2c.2-1.1.1-2.9-.5-5.2-.5-2.2-1.1-3.8-1.7-4.8-.7-1-1.5-1.4-2.5-1.2-1 .2-1.6.9-1.8 2.1-.2 1.2-.1 2.9.4 5.1.6 2.2 1.2 3.8 1.8 4.8zm17.3-9.7l2.3-.5-1.9-8.9c1.7-.7 3.4-1.3 5.2-1.7.9-.2 1.7-.3 2.4-.4s1.5 0 2.2.1 1.4.4 1.9.7c.5.4 1 .9 1.5 1.5.4.7.7 1.5 1 2.5.3 1.4.2 2.7-.3 3.8-.5 1.1-1.2 2-2.1 2.6-.9.6-2 1.1-3.3 1.3-.9.2-1.5.3-1.8.3l.3 1.6 4.4-1 .6 2.9-4.4 1 .7 3.2-4.1.9-.7-3.2-2.3.5-.6-2.9 2.3-.5-.3-1.5-2.3.5-.7-2.8zm5.2-7l1.2 5.5c.3 0 .7 0 1.2-.1 1-.2 1.8-.7 2.3-1.3.5-.7.7-1.5.4-2.5-.4-1.8-1.6-2.5-3.5-2.1-.7.1-1.2.3-1.6.5z" class="st1"/>
  <path d="M59.5 108.1h-8.2v-8.3h-6.6v8.3h-8.2v6.5h8.2v8.2h6.6v-8.2h8.2z" class="st2"/>
  <path d="M51.3 99.8v8.2h8.2v6.5h-8.2v8.2h-6.5v-8.2h-8.2V108h8.2v-8.2h6.5m0-2.8h-6.5c-1.6 0-2.8 1.3-2.8 2.8v5.4h-5.4c-1.6 0-2.8 1.3-2.8 2.8v6.5c0 1.6 1.3 2.8 2.8 2.8H42v5.4c0 1.6 1.3 2.8 2.8 2.8h6.5c1.6 0 2.8-1.3 2.8-2.8v-5.4h5.4c1.6 0 2.8-1.3 2.8-2.8V108c0-1.6-1.3-2.8-2.8-2.8h-5.4v-5.4c0-1.5-1.3-2.8-2.8-2.8z" class="st0"/>
</svg>
