<?xml version="1.0" encoding="utf-8"?>
<!-- Generator: Adobe Illustrator 20.0.0, SVG Export Plug-In . SVG Version: 6.00 Build 0)  -->
<svg version="1.1" id="Layer_1" xmlns="http://www.w3.org/2000/svg" xmlns:xlink="http://www.w3.org/1999/xlink" x="0px" y="0px"
	 width="167.9px" height="64.4px" viewBox="0 0 167.9 64.4" style="enable-background:new 0 0 167.9 64.4;" xml:space="preserve">
<style type="text/css">
	.st0{fill:#5AAA2D;}
</style>
<g>
	<path class="st0" d="M5,27c0.9-2.4,2.8-3.7,5-3.2c0.8,0.3,1.7,0.7,2.5,1.6c1.6,2.5,0.6,5.5,1.9,8c0.8,0.5,1.8,1.4,2.5,1.1
		c0.9-0.2,1.3-0.7,2-0.9c0.5,0.8-0.3,1-0.9,1.5c-1.8,0.8-4.1,0.7-5.1-0.8c-1.5-1.5-1.7-5.6-2.8-6.9c-0.2-0.1-0.6-0.3-1.2-0.4
		c-0.9,0.2-1.8,1.1-2.1,2.7c-0.5,2.7-0.7,5.7-1.4,8.7c-0.7,1.7-3.2,1.7-3.4,0.2c-0.2-3.7-0.1-9.5-1.8-13.8c-0.7-0.9,0.9-3,2.2-2.7
		c0.1,0,0.1,0,0.2-0.1l0.8,0.2C5.3,23,4.8,25.3,5,27z"/>
	<path class="st0" d="M27.8,30.5c0.2,0.7,1,1.4,1.9,1.1c1.4-0.3,2.1-1.2,3.2-1.9c0.7-0.5,0.9-0.2,0.4,0.4c-1,1.5-2.3,2.5-4.1,2.8H29
		c-2.2,0-3.2-0.8-3.7-2.3l-0.2-0.5c-0.3-0.9-0.6-1.1-1.1-1c-0.7,0.1-2.1,2.7-2.5,3.9c-0.6,1.6-0.7,2.9-1,4.9
		c-0.3,2.7-0.1,4.7-1.5,5.1h-0.2c-0.9,0-1.2-1.7-1.2-3.2c-0.3-4.7-0.5-10.9,0-15.1c0.1-1.1,0.8-2,1.8-2.2c0.7-0.2,1.5,0.3,1.7,1.6
		v0.1c0.2,1.1-1.3,5.7-1.2,9c0.8-4,2.5-6.8,3.8-7C26.1,25.6,27.2,28.3,27.8,30.5z"/>
	<path class="st0" d="M34.5,24.1c0.7,0.2,1.3,1.2,0.6,1.8c-0.3,1-0.6,2.8,0.8,3.4c0.9,0.4,1.5,0.1,1.9-0.5c0.7-0.6,0.5-3-0.1-3.8
		c-1.1,0.1-2-0.3-2.2-1.4c0-1.1,0.4-1.3,1.3-1.5c1.1,0,1.3,0.5,2,1.4l0.1-0.1c0.4-0.1,0.4-0.5,0.6-0.8c0.1-0.3,0.6-0.4,0.6,0
		c0.3,0.7-0.5,1.1-1,1.6c1.2,1.5,1.5,4.6,0.2,6.3c-0.8,0.7-1.5,0.8-2.6,1.1c-2.3,0.8-5.8-1.1-5.4-3.9c-0.2-1.2,0-2.3,1.2-3.1
		c0.2-0.3,0.5-0.5,0.9-0.5c0.4-0.1,0.8-0.1,1.1-0.1V24.1z M37.4,24.4c0.1-0.4-0.1-1.1-0.7-1.3c-0.4-0.2-0.3,0.2-0.3,0.6
		c0,0.1,0.1,0.2,0.1,0.3c0,0.2,0,0.2,0.1,0.3C36.8,24.3,37.2,24.4,37.4,24.4z"/>
	<path class="st0" d="M48.7,28.4c-0.1,0.4-1.5,1-2.9,1.2c-0.2,0-0.4,0.1-0.6,0.1c-1.5,0.2-2.6-0.7-2.8-2.1c-0.1-0.4,0-0.7,0.1-1.1
		c0.3-2.4,1.9-4.9,4.5-5.2h0.2c1.5-0.2,2.5,0.1,3.1,1.3l0.4,0.7c0.6,1.2,1.1,2,1,4.2c1.2-0.9,2.7-1.7,3.5-1.8c0,0.2,0.1,0.6,0,0.7
		c-0.9,0.3-3.3,2-3.5,2.1c0,0.6-0.1,1.1-0.2,1.7c-0.3,1.1-1.4,3.1-2.3,3.8c-0.1,0.1-0.3,0.1-0.5,0.2l-0.4,0.1c-0.3,0-0.6,0-0.8-0.2
		c0,0-0.1,0-0.1-0.1v-0.2v-0.2c-0.6-2.4,1-3.7,2.5-4.6v-0.4l-0.1-0.8c-0.3,0.3-0.7,0.5-0.9,0.8L48.7,28.4z M49.3,26.1
		c-0.3-0.9-0.8-1.7-1.4-2.2c-0.2-0.1-0.4-0.1-0.6-0.1c-0.3,0-0.7,0.2-1.2,0.5c-0.5,0.4-0.5,1.4-0.5,1.9v0.2c0.1,0.4,0.4,0.5,0.7,0.4
		c0.5,0,0.9-0.9,1.2-1.1c0.1-0.1,0.7-0.2,0.8-0.3C48.7,25.6,49.1,25.8,49.3,26.1z M48.8,30.8L48.8,30.8c-0.1,0.3-0.3,0.6-0.2,0.9
		l0,0v0.1c0,0.3,0.2,0.4,0.4,0.4c0.2,0,0.4-0.1,0.5-0.4c0.2-0.3,0.3-0.5,0.4-0.9c0.1-0.5,0.1-1,0.2-1.5C49.3,30,49,30.4,48.8,30.8z"
		/>
	<path class="st0" d="M56.3,19.6c0.7,0.2,1.3,1.2,0.6,1.8c-0.3,1-0.6,2.8,0.8,3.4c0.9,0.4,1.5,0.1,1.9-0.5c0.7-0.6,0.5-3-0.1-3.8
		c-1.1,0.1-2-0.3-2.2-1.4c0-1.1,0.4-1.3,1.3-1.5c1.1,0,1.3,0.5,2,1.4l0.1-0.1c0.4-0.1,0.4-0.5,0.6-0.8c0.1-0.3,0.6-0.4,0.6,0
		c0.3,0.7-0.5,1.1-1,1.6c1.2,1.5,1.5,4.6,0.2,6.3c-0.8,0.7-1.5,0.8-2.6,1.1c-2.3,0.8-5.8-1.1-5.4-3.9c-0.2-1.2,0-2.3,1.2-3.1
		c0.2-0.3,0.5-0.5,0.9-0.5c0.4-0.1,0.8-0.1,1.1-0.1V19.6z M59.2,19.9c0.1-0.4-0.1-1.1-0.7-1.3c-0.4-0.2-0.3,0.2-0.3,0.6
		c0,0.1,0.1,0.2,0.1,0.3c0,0.2,0,0.2,0.1,0.3C58.6,19.8,59,19.9,59.2,19.9z"/>
	<path class="st0" d="M64.3,22.7c0.2-0.8,1.7-1.4,3-0.6c1.5,0.8,2.4-0.1,2.9-1c1.1-2,1.5-4,2.8-5.8c1.7,2.5,3.1,7.1,5,6.7
		c1.5-0.7,1.6-1.5,2.3-2c0.3,1.2-0.6,2.2-1.4,2.6c-2.1,1-3.7-0.1-4.5-2.2c-0.3-0.2-0.5-0.8-0.8-1c0-0.1-0.1-0.2-0.2,0
		c-1.7,2.8-1.6,7-5.8,6.9c-1.4,0-3.4-1-3.5-2.6v-0.1L64.3,22.7z"/>
	<path class="st0" d="M80.4,16.7c-0.4-0.6-0.1-1,0.4-1.8c1.3-1.8,4.4-2.9,6.7-1.8c0.9,0.9,1,1.4,1,2.6c1.5-1.8,2.7-2.9,4.7-3.9
		c0,0.1,0.1,0.1,0.1,0.2c0.3,0.9-1.6,4.9-1.4,5.8c1.2-1.4,4.1-6.5,6-7.1c1.2-0.2,1.7,0.5,1.5,1.5c-0.6,1.2-1.8,0.9-2.6,2
		c-0.4,0.3-0.9,1.1-0.7,1.8c0.2,1.7,1.9,2.7,3.5,2.3c0.8-0.2,1.6-0.7,2.1-1.6c0.3-0.3,0.5-0.8,0.7-1c0.8,0.4-0.8,2.4-1.3,2.7
		c-1.9,1-4.2,1.3-5.6,0c-0.4-0.3-0.8-0.9-1.1-1.3c-1.4,1.4-2.5,3.2-4.1,4.3c-0.8,0.7-1.6,0.1-1.4-0.6c0.2-1.4,0.3-2.4,0.8-3.7
		c-0.4,0.2-1,0.7-1.9,1.5c-1.5,3.6-4.9,5.3-8.1,3.2c-0.7-1.7,4.9-0.4,5.4-3.3c0-0.3-0.3-2-0.3-2.3c-0.1,0-0.2,0.1-0.2-0.1
		c-1.1-0.1-2.1,1.2-2.9,1.7c-0.1-0.1-0.3-0.1-0.4-0.2c-0.1,0-0.1-0.1-0.1-0.1l-0.1-0.1L80.4,16.7z"/>
	<path class="st0" d="M111.3,10.7c0,1.2-0.4,2.2-0.2,3.4c0.1,0.4,0.2,0.8,0.7,1.1c1.3,0.7,2.2-0.6,2.9-1.2c0.3-0.3,0.5-0.7,0.7-0.9
		c0.3-0.2,0.7,0,0.4,0.5c-0.7,1-1.7,2.1-3,2.3c-0.7,0.2-1.4,0.2-2.1,0c-0.7-0.1-0.9-0.6-1-1.2c0-0.2-0.1-0.5-0.1-0.7
		c-0.6,1.4-2.7,3.8-4.6,4.3c-0.1,0-0.1,0.1-0.2,0.1h-0.2c-1.1,0.2-2-0.8-2.6-1.6l0,0c-0.1-0.2-0.1-0.3-0.1-0.5
		c-0.4-1.8,0.4-3.7,1.2-5.3c0.4-0.5,0.6-0.9,1.1-1.3c0.8-0.4,1.5-0.7,2.1-0.7c1.4-0.3,2.2,0,2.8,1c0.3-0.6,0.4-1.2,1.3-1.3
		C111.3,9.1,111.4,9.9,111.3,10.7z M107.3,12.4c-0.7-0.8-1.8-0.2-2.3,0.7c-0.2,0.4-0.4,1.1-0.4,1.6c0.1,1.7,1.3,1.7,2.3,1
		c0.6-0.5,0.9-1.1,1.3-1.8c0.2-0.5,0.3-0.9,0.5-1.4C108.1,12.7,107.6,12.9,107.3,12.4z"/>
	<path class="st0" d="M123.6,9.1c-0.1,0.7-0.2,1.5,0,2.2c0.1,0.7,0.7,1.4,1.5,1.5c1-0.1,2.1-1.7,2.5-2.2c0.8-0.5,0.2,0.7-0.1,0.9
		c-0.6,0.7-2,2.2-2.9,2.3c-1.1,0.3-2.5-0.5-2.8-1.5c-0.9,2.3-2.4,3.6-4.9,3.5c-3-0.6-4-6-3.2-8.5c0.2-1.1,1.4-2.2,2.5-1.7
		c0.5,0.2,0.7,0.6,0.8,1.1c0.1,0.5,0,1-0.1,1.4c-0.1,0.8-0.8,3.5-0.1,4.4c0.2,0.6,0.8,0.9,1.4,0.7c0.9-0.3,1.4-0.7,1.9-1.4
		c0.7-1,0.9-3,1-4.2c0.2-0.6,0.6-1.4,1.4-1.5C123.7,6.6,123.8,8.1,123.6,9.1z M116.5,3.5c-0.6-1.9,2.3-2.2,3.8-2.1
		c0.9,0.6,1.9-0.2,2.6-0.8c0.2-0.6,0.8-0.4,1.3-0.6c0.1,0.1,0.1,0.1,0.2,0.1c0.4,0.9-0.7,1.9-1.3,2.6c-1.8,1.3-4.2,2.7-6.3,1.5
		c0-0.1,0-0.1-0.1-0.1L116.5,3.5z"/>
	<path class="st0" d="M42.9,44.8l-0.1-0.7c0-0.2,0-0.4,0-0.5c-0.1-0.3,0.1-0.5,0.2-0.8c0.1,0,0.1,0,0.1-0.1c0.7-0.2,1.3-0.3,2-0.4
		c0.3-2.3,1.3-4.5,2.8-6.1c0.8-1,2.4-1.6,3.5-0.8c0.6,1.1,0.5,2.4,0.5,3.6c-0.2,3.1-2.2,5-4.7,6.1c0.1,0.8,0.4,1.6,0.8,2.4
		c0.7,0.9,1.5,1.2,2.2,1.1c0.3,0,0.7-0.3,0.9-0.9c-0.5,0.1-1,0.1-1.4-0.1c-0.6,0-1.2-0.6-1.3-1.2c0-0.2,0-0.4,0.1-0.6
		c1-0.7,3.3-0.3,3.8,1c0.8-0.3,1.7-0.8,2.4-1.2c0.1-0.1,0.1,0.1,0.1,0.1c-0.1,0.6-1.2,1.3-2.4,1.7c0,0,0,0,0,0.1
		c0,0.6-0.3,0.9-0.6,1.3c-0.7,0.6-1.4,1.6-2.5,1.5c-2.2-0.9-3.5-2.6-4-4.6c-0.5,0.1-1.1,0.2-1.6,0.3L42.9,44.8z M43,45.4l-0.2-0.9
		l0.1,0.3C43,45.1,43,45.3,43,45.4z M47.5,41.8c1.7-1.1,2.1-2.4,1.7-3.2c-0.4,0.5-0.4,0.4-1.1,1.3C47.9,40.5,47.7,41.1,47.5,41.8z
		 M51.2,47L51.2,47c-0.3-0.6-0.9-0.5-1.4-0.3c-0.2,0-0.1,0.1-0.1,0.2C50.2,47.1,50.7,47.1,51.2,47z"/>
	<path class="st0" d="M57.4,45.9c1.5,0.8,2.3-0.6,2.8-1.6c1.1-2,1.7-5.2,3-7c0.8-0.2,1.1,1,1.3,1.7c0.8,1.9,1.6,3.4,2.5,4.4
		c0.8,0.7,1.3,0.7,1.7-0.6c1.2-1.8,1-6,2.8-5.9c0.7,0.5,2.8,6.3,4.5,6.4c1.6-0.1,3.3-1.9,3.9-2.5c0.2,0.9-1.9,3.8-4,3.8
		c-1.8-0.1-4-2-4.4-4.1c-0.8,2.6-1.4,6.2-3.5,6.5c-1.9,0.2-3.4-1.4-4.2-3.8c-1.4,2.9-2.2,6.2-6.1,6c-1.4,0-3.2-0.4-3.4-2.1V47
		l0.2-0.7C54.6,45.7,56.1,45.2,57.4,45.9z"/>
	<path class="st0" d="M80.8,41.5c0.2,0.4,0.5,0.5,0.8,0.6c1.9,0.3,2.9-0.3,4-0.9c0.6-0.2,2-1.5,2.6-1.7c0.2-0.1,0.1,0.1,0.2,0.2
		c-1.1,1.8-4.6,3.6-6.7,3.9c-2.3,0.4-3.7-1.1-4.1-2.9s0.1-4,1.7-5.2c1.4-1.2,3.7-1.7,4.8-0.8c1.7,1.9,0.1,6.2-2.9,6.7L80.8,41.5z
		 M80.4,40.7c0.5-0.3,1.9-2.2,1.8-3.4c-0.1-0.6-0.6-0.8-1.2-0.4C80.1,37.8,79.8,39.5,80.4,40.7z"/>
	<path class="st0" d="M92.5,31.8L92.5,31.8c0.5-0.3,0.7,0.2,1.1,0.4l0.1,0.1c0,0.1,0.2,0.1,0.1,0.2c0.1-0.1,0.1,0.1,0.1,0.2
		c0.5,0.2,0.6,1.1,0.3,1.7c-0.1,0.8-0.8,1-1.5,1.1c-0.3-0.1-0.5,0.1-0.9,0.1c-0.1,0-0.1,0.2-0.2,0.1c-0.8,0.8-1.2,2.2-0.7,3.6
		c0.5,1.5,2.4,1.3,3.7,1.1c1.5-0.3,2.7-1.9,3.4-3c0.1-0.2,0.4-0.1,0.6-0.2c0,0.1,0,0.1,0.1,0.1c0.1,0.1,0.2,0,0.3,0.1
		c0.1,0.4-0.2,0.7-0.4,1c-1.5,2.5-4.5,3.5-7.2,3.6c-2.3,0.4-4-1.7-4.4-3.9c-0.5-2.9,2-4.8,4.2-5.7C91.8,32.3,92,31.9,92.5,31.8
		L92.5,31.8z"/>
	<path class="st0" d="M107,33.3c0.2-1.1,1.3-2.7,2.2-3c1.6-0.5,2.6,0.4,3,1.7c0.6,1.5,1.8,3.3,3.8,2c0.4-0.4,0.7-0.7,1-1.1
		c0.5-1,0.9-0.1,0.5,0.6c-1.9,3.4-5.9,1.8-6.7-0.1c-0.7-0.4-1.4-1-1.8,0.6c-0.5,1.4-1.1,3.7-2.2,4.2c-1.7,0.6-0.9-4.6-2.8-4.4
		c-1.4,0.2-2.7,3.6-3,5.2c-0.4,0.9-0.7,2.2-1.8,2.5c-1.6,0.4-1.9-4.3-1.7-7.9c-0.1-2.3,0.4-3.2,1.6-4c2.1-1.3,2.4,0.9,2.5,2.4
		c0,0.1,0,0.1,0,0.2c0.7-2.1,3.9-4.2,4.7-2.3C106.5,30.8,106.8,32,107,33.3z M103,28c0.1,0,0.2,0,0.2-0.1c2.2-0.1,3.2-1.8,5-2.9
		c0.3-0.2,0.6-0.5,1-0.7c0.4-0.4,1-0.4,1.6-0.4c0.3,0.1,0.7,0,0.9,0.2c-1.7,2.7-5.4,3.6-8.4,4.4L103,28z"/>
	<path class="st0" d="M119,33.7c0.2,0.4,0.5,0.5,0.8,0.6c1.9,0.3,2.9-0.3,4-0.9c0.6-0.2,2-1.5,2.6-1.7c0.2-0.1,0.1,0.1,0.2,0.3
		c-1.1,1.8-4.6,3.6-6.7,3.9c-2.3,0.4-3.7-1.1-4.1-2.9s0.1-4,1.7-5.2c1.4-1.2,3.7-1.7,4.8-0.8c1.7,1.9,0.1,6.2-2.9,6.7H119z
		 M118.5,32.9c0.5-0.3,1.9-2.2,1.8-3.4c-0.1-0.6-0.6-0.8-1.2-0.4C118.3,30,118,31.7,118.5,32.9z"/>
	<path class="st0" d="M84.6,54.2L84.6,54.2c0.5-0.3,0.7,0.2,1.1,0.4l0.1,0.1c0,0.1,0.2,0.1,0.1,0.2C86,54.8,86,55,86,55.1
		c0.5,0.2,0.6,1.1,0.3,1.7c-0.1,0.8-0.8,1-1.5,1.1c-0.3-0.1-0.5,0-0.9,0.1c-0.1,0-0.1,0.2-0.2,0.1c-0.8,0.8-1.2,2.2-0.7,3.6
		c0.5,1.5,2.4,1.3,3.7,1.1c1.5-0.3,2.7-1.9,3.4-3c0.1-0.2,0.4-0.1,0.6-0.2c0,0.1,0,0.1,0.1,0.1c0.1,0.1,0.2,0,0.3,0.1
		c0.1,0.4-0.2,0.7-0.4,1c-1.5,2.5-4.5,3.5-7.2,3.6c-2.3,0.4-4-1.7-4.4-3.9c-0.5-2.9,2-4.8,4.2-5.7C83.8,54.7,84.1,54.4,84.6,54.2
		L84.6,54.2z"/>
	<path class="st0" d="M103.8,51.8c0,0.5-0.8,4.4-0.3,4.8c0.9-1.9,4.4-1.1,4.9-5.1c0.4-0.5,0.6-1.1,1.2-1.2c0.2-0.2,0.8,0.1,1,0.1
		c0.9,0.6,0.5,1.7,0.3,2.5c-0.6,1.6-0.9,3,0.5,4.1c1.1,0.2,3.5-1.8,4.2-2.3c0-0.2,0.2,0,0.3-0.2c-0.1,1.3-3.5,4.6-6.1,3.8
		c-1.1-1.1-1.7-1.7-1.4-3.6c-0.1-0.2,0.1-0.4,0-0.6c-1,2.6-3.3,2.1-4.8,4.2c-0.3,1.4,0.1,3.4-1.4,3.8c-0.1-0.1-0.1-0.1-0.2-0.1
		s-0.1,0-0.2-0.1c0-0.1-0.1-0.2-0.2-0.3c-1.7-2-3.2-7.8-2-10.4c0.5-0.6,3.5-1.4,4.1,0.2L103.8,51.8z"/>
	<path class="st0" d="M123.3,49.8c0,1.2-0.4,2.2-0.2,3.4c0.1,0.4,0.2,0.8,0.7,1.1c1.3,0.7,2.2-0.6,2.9-1.2c0.3-0.3,0.5-0.7,0.7-0.9
		c0.3-0.2,0.7,0,0.4,0.5c-0.7,1-1.7,2.1-3,2.3c-0.7,0.2-1.4,0.2-2.1,0c-0.7-0.1-0.9-0.6-1-1.2c0-0.2-0.1-0.5-0.1-0.7
		c-0.6,1.4-2.7,3.8-4.6,4.3c-0.1,0-0.1,0.1-0.2,0.1h-0.2c-1.1,0.2-2-0.8-2.6-1.6l0,0c-0.1-0.2-0.1-0.3-0.1-0.5
		c-0.4-1.8,0.4-3.7,1.2-5.3c0.4-0.5,0.6-0.9,1.1-1.3c0.8-0.4,1.5-0.7,2.1-0.7c1.4-0.3,2.2,0,2.8,1c0.3-0.6,0.4-1.2,1.3-1.3
		C123.2,48.2,123.4,49,123.3,49.8z M119.2,51.5c-0.7-0.8-1.8-0.2-2.3,0.7c-0.2,0.4-0.4,1.1-0.4,1.6c0.1,1.7,1.3,1.7,2.3,1
		c0.6-0.5,0.9-1.1,1.3-1.8c0.2-0.5,0.3-0.9,0.5-1.4C120.1,51.8,119.6,52,119.2,51.5z"/>
	<path class="st0" d="M129.5,51.9c1.5,0.8,2.3-0.6,2.8-1.6c1.1-2,1.7-5.2,3-7c0.8-0.2,1.1,1,1.3,1.7c0.8,1.9,1.6,3.4,2.5,4.4
		c0.8,0.7,1.3,0.7,1.7-0.6c1.2-1.8,1-6,2.8-5.9c0.7,0.5,2.8,6.3,4.5,6.4c1.6-0.1,3.3-1.9,3.9-2.5c0.2,0.9-1.9,3.8-4,3.8
		c-1.8-0.1-4-2-4.4-4.1c-0.8,2.6-1.4,6.2-3.5,6.5c-1.9,0.2-3.4-1.4-4.3-3.8c-1.4,2.9-2.2,6.2-6.1,6c-1.4,0-3.2-0.4-3.3-2.1V53
		l0.2-0.7C126.7,51.7,128.2,51.2,129.5,51.9z"/>
	<path class="st0" d="M159.4,43.3c-0.1,0.7-0.2,1.5,0,2.2c0.1,0.7,0.7,1.4,1.5,1.5c1-0.1,2.1-1.7,2.5-2.2c0.8-0.5,0.2,0.7-0.1,0.9
		c-0.6,0.7-2,2.2-2.9,2.3c-1.1,0.3-2.5-0.5-2.8-1.5c-0.9,2.3-2.4,3.6-4.9,3.5c-3-0.6-4-6-3.2-8.5c0.2-1.1,1.4-2.2,2.5-1.7
		c0.5,0.2,0.7,0.6,0.8,1.1c0.1,0.5,0,1-0.1,1.4c-0.1,0.8-0.8,3.5-0.1,4.4c0.2,0.6,0.8,0.9,1.4,0.7c0.9-0.3,1.4-0.7,1.9-1.4
		c0.7-1,0.9-3,1-4.2c0.2-0.6,0.6-1.4,1.4-1.5C159.5,40.8,159.6,42.4,159.4,43.3z"/>
	<path class="st0" d="M166.8,30.2c0.8,4-2.6,7.5-1.7,11.5c0.1,0.1-0.2,0.1-0.2,0c-0.1,0.1-0.1-0.1-0.2,0c-1.5-1.6-1.9-4.1-2.1-6.3
		c0.1-1.8,0.1-4.5,2.2-5L166.8,30.2z M167.8,44.8l0.1,0.4c0.4,1.9-1.6,2.7-3.1,3c-1.3,0.5-1.6-1.3-1.6-2.2c-0.3-0.9,0.5-1.6,1.2-2.2
		c0.6-1,1.7-0.6,2.6-0.5L167.8,44.8z"/>
</g>
</svg>
