<svg xmlns="http://www.w3.org/2000/svg" id="Layer_1" width="160.2" height="184.1">
  <style>
    .st0{fill:#5AAA2D;} .st1{fill:#FFFFFF;}
  </style>
  <path d="M70.1 109.3c-14.6 0-28.5-2.8-40.2-8.2C13.1 93.3 2.6 81.1.4 66.7c-2.2-14.4 4.2-29.2 18-41.6C31.9 13 50.9 4.6 72 1.4c21.1-3.2 41.8-.8 58.3 6.8 16.8 7.8 27.3 20 29.5 34.4 2.2 14.4-4.2 29.2-18 41.6-13.5 12.1-32.5 20.6-53.6 23.8-6.1.9-12.1 1.3-18.1 1.3z" class="st0"/>
  <path d="M86.2 106.9l-4.8 1.3c.1.2 5.7 21.8-5.9 40.9-7.1 11.6-19 20-35.5 24.9 4.1-5.3 6-11.5 6.1-11.8.4-1.3-.4-2.7-1.7-3.1-1.3-.4-2.7.4-3.1 1.7-1 3.3-5 12.5-11.2 15.3-1 .4-1.6 1.5-1.5 2.6.1 1.1 1 2 2.1 2.1l22.3 3.4h.4c1.2 0 2.3-.9 2.5-2.1.2-1.4-.7-2.6-2.1-2.8l-9.3-1.4c16.1-5.4 28-14.1 35.2-26.1 12.7-21.1 6.8-43.9 6.5-44.9z" class="st0"/>
  <path d="M41 40.4c-.1.1-.1.2 0 .3-.2.1 0 .2-.1.4-.1.1.1.4-.1.3 0 .1 0 .1-.1.1.1.2-.1.1-.1.2-2.1 1.9-5.5-.6-7.6 1.6-1.5 3.3-1.1 7.5 1.7 10.1 3.1 1.4 7 1.3 9.1-1.3.9-.4 1.3-1.5 2.3-1.6 0 .3-.1.6-.2.8-4 5.6-9.9 5.8-13.9 4.1-5-2.2-6.5-10.5-2.9-15 1.3-2.9 5.3-4.2 8.1-4.9 1.7.4 3.5 1.9 3.8 3.8v1.1z" class="st1"/>
  <path d="M48.3 42.6c.9.3 1.7 1.6.9 2.5-.3 1.4-.7 3.9 1.1 4.6 1.2.5 2.1.1 2.6-.7.9-.9.6-4.1-.1-5.2-1.4.2-2.8-.3-3-1.9 0-1.4.5-1.8 1.7-2.1 1.5 0 1.8.6 2.7 1.8l.1-.1c.5-.2.6-.7.8-1 .2-.3.8-.5.8 0 .4 1-.7 1.5-1.3 2.1 1.7 2 2.1 6.2.4 8.6-1 .9-2.1 1.2-3.6 1.6-3.1 1.1-8-1.5-7.4-5.2-.2-1.6 0-3.2 1.5-4.3.3-.4.7-.6 1.2-.7.5-.1 1-.1 1.5-.2l.1.2zm3.9.3c.1-.6-.1-1.5-.9-1.8-.5-.2-.4.3-.4.9.1.1.1.3.1.3.1.2 0 .3.2.4.2.1.8.2 1 .2zm19.7-.9c.2-1.4 1.8-3.7 3-4.1 2.2-.7 3.5.5 4 2.3.8 2 2.5 4.5 5.1 2.7.5-.5.9-.9 1.4-1.6.6-1.3 1.3-.1.7.9-2.5 4.7-8 2.5-9.1-.1-1-.6-1.9-1.3-2.5.9-.6 1.9-1.5 5-3 5.7-2.2.8-1.3-6.3-3.8-5.9-1.9.3-3.6 5-4 7.1-.5 1.2-.9 3-2.4 3.4-2.2.6-2.6-5.8-2.4-10.7-.2-3.2.5-4.3 2.2-5.5 2.8-1.8 3.2 1.2 3.4 3.2 0 .1.1.2 0 .2 1-2.9 5.2-5.8 6.4-3.2.2 1.3.7 2.9 1 4.7zm-5.5-7.2c.2 0 .3-.1.3-.2 3-.1 4.3-2.5 6.7-4 .5-.3.8-.7 1.3-1 .6-.6 1.4-.5 2.1-.6.4.2.9 0 1.3.3-2.3 3.7-7.2 5-11.3 6.1l-.4-.6z" class="st1"/>
  <path d="M98.7 38.5c.2 1 1.4 1.8 2.6 1.4 1.9-.4 2.8-1.7 4.4-2.7.9-.6 1.3-.2.5.6-1.4 2-3.1 3.4-5.5 3.9l-.2.1c-3 0-4.4-1.1-5-3.1l-.3-.7c-.5-1.2-.8-1.5-1.5-1.4-.9.2-2.8 3.7-3.3 5.3-.7 2.2-.9 4-1.2 6.7-.4 3.7 0 6.3-2 6.9h-.3c-1.2 0-1.6-2.4-1.7-4.3-.5-6.4-.8-14.9-.2-20.5.1-1.5 1.1-2.8 2.5-3.1 1-.2 2 .4 2.4 2.1v.1c.3 1.5-1.7 7.8-1.6 12.2 1.1-5.5 3.3-9.3 5-9.5 2.9-.6 4.5 3.1 5.4 6z" class="st1"/>
  <path d="M116.6 32.3c-.1 1-.2 2 0 3 .2.9 1 1.9 2 2 1.4-.2 2.8-2.3 3.4-3 1.1-.7.3.9-.1 1.3-.7 1-2.7 3-4 3.2-1.5.4-3.4-.6-3.8-2-1.3 3.1-3.1 4.9-6.6 4.9-4-.7-5.5-8.1-4.4-11.5.3-1.5 1.8-3 3.4-2.4.6.2 1 .8 1.1 1.4.1.6.1 1.3-.1 1.9-.1 1.1-1 4.7-.1 5.9.3.8 1.1 1.2 1.9 1 1.2-.4 1.9-.9 2.6-1.9 1-1.4 1.2-4.1 1.3-5.8.3-.9.8-2 1.9-2.1 1.5.7 1.7 2.8 1.5 4.1zM33.8 82.5c.2-1.1 2.3-1.9 4-.9 2 1.1 3.2-.1 4-1.4 1.4-2.7 2-5.4 3.7-8 2.3 3.3 4.3 9.6 6.9 9 2-1 2.1-2.1 3.1-2.8.4 1.7-.8 3-1.9 3.6-2.9 1.4-5.1-.1-6.2-2.9-.4-.2-.7-1.1-1.1-1.4 0-.1-.2-.3-.2-.1-2.3 3.9-2.1 9.6-7.8 9.4-1.9 0-4.6-1.3-4.7-3.5l.1-.1.1-.9z" class="st1"/>
  <path d="M67.3 73.3c-.1 1-.2 2 0 3 .2.9 1 1.9 2 2 1.4-.2 2.8-2.3 3.4-3 1.1-.7.3.9-.1 1.3-.7 1-2.7 3-4 3.2-1.5.4-3.4-.6-3.8-2-1.3 3.1-3.1 4.9-6.6 4.9-4-.7-5.5-8.1-4.4-11.5.3-1.5 1.8-3 3.4-2.4.6.2 1 .8 1.1 1.4.1.6.1 1.3-.1 1.9-.1 1.1-1 4.7-.1 5.9.3.8 1.1 1.2 1.9 1 1.2-.4 1.9-.9 2.6-1.9 1-1.4 1.2-4.1 1.3-5.8.3-.9.8-2 1.9-2.1 1.6.7 1.8 2.8 1.5 4.1z" class="st1"/>
  <path d="M71.3 69.5c-.1-2.9.9-5.8 3.8-4.5 2.5.6 1.8 3.3 1.6 5.6-.7 2-.9 3.8.6 5.7 1.9.7 3.3 0 4.8-1.1-1.6-2.6-2-6.8-1.3-9 .3-1.5 1.8-3 3.4-2.4.6.2 1 .8 1.1 1.4.1.6.1 1.3-.1 1.9-.1 1.1-1 4.7-.1 5.9.3.8 1.1 1.2 1.9 1 1.2-.4 1.9-.9 2.6-1.9 1-1.4.6-4 .7-5.6.3-.9.8-2 1.9-2.1 1.4.7 1.6 2.8 1.4 4.1-.1 1 .4 1.9.6 2.9.2.9 1 1.9 2 2 .7-.1 1.4-.7 2-1.4 1-.9 1.7-.2.4 1h-.1c-.9 1-2.2 1.7-3.1 1.8-1.5.4-3.4-.6-3.8-2-1.3 3.1-3.1 4.9-6.6 4.9-.9-.2-1.8-.7-2.4-1.5-.8 1.6-2.6 2.8-4.5 3.2-1.9.4-3.9.1-5.2-1.3-1.3-1.7-1.5-4.2-1.7-5.9l.1-2.7z" class="st1"/>
  <path d="M102.8 61.7c0 .7-1 6-.4 6.5 1.3-2.5 6-1.6 6.5-7 .5-.6.8-1.5 1.7-1.7.3-.2 1.1.1 1.4.1 1.3.9.8 2.3.5 3.4-.8 2.2-1.2 4 .7 5.6 1.4.2 4.8-2.5 5.6-3.2 0-.2.3-.1.4-.3-.2 1.8-4.8 6.3-8.2 5.3-1.5-1.5-2.3-2.2-2-4.8-.1-.3.1-.6-.1-.9-1.3 3.6-4.5 2.9-6.5 5.8-.5 1.8.1 4.7-1.8 5.2-.1-.1-.2-.1-.2-.1-.1 0-.2 0-.2-.1 0-.2-.2-.2-.3-.4-2.4-2.7-4.5-10.6-2.8-14.2.6-.9 4.7-1.9 5.6.3l.1.5z" class="st1"/>
  <path d="M120.3 65.8c.2.5.6.6 1.1.8 2.5.4 3.9-.5 5.4-1.3.8-.3 2.7-2.1 3.5-2.3.3-.1.2.2.3.3-1.5 2.5-6.2 5-9.1 5.4-3.1.5-5-1.4-5.6-3.9-.6-2.4.1-5.5 2.2-7.1 1.9-1.7 4.9-2.3 6.5-1.2 2.3 2.5.3 8.4-3.8 9.1l-.5.2zm-.7-1.1c.7-.5 2.5-3.1 2.4-4.6-.1-.9-.9-1.1-1.6-.5-1.1 1.2-1.5 3.5-.8 5.1z" class="st1"/>
  <path d="M133 63.1c.2.5.6.6 1.1.8 2.5.4 3.9-.5 5.4-1.3.8-.3 2.7-2.1 3.5-2.3.3-.1.2.2.3.3-1.5 2.5-6.2 5-9.1 5.4-3.1.5-5-1.4-5.6-3.9-.6-2.4.1-5.5 2.2-7.1 1.9-1.7 4.9-2.3 6.5-1.2 2.3 2.5.3 8.4-3.8 9.1l-.5.2zm-.6-1.1c.7-.5 2.5-3 2.4-4.6-.1-.9-.9-1.1-1.6-.5-1.2 1.1-1.5 3.5-.8 5.1z" class="st1"/>
</svg>
