<?xml version="1.0" encoding="utf-8"?>
<!-- Generator: Adobe Illustrator 20.0.0, SVG Export Plug-In . SVG Version: 6.00 Build 0)  -->
<svg version="1.1" id="Layer_1" xmlns="http://www.w3.org/2000/svg" xmlns:xlink="http://www.w3.org/1999/xlink" x="0px" y="0px"
	 width="160.2px" height="184.1px" viewBox="0 0 160.2 184.1" style="enable-background:new 0 0 160.2 184.1;" xml:space="preserve"
	>
<style type="text/css">
	.st0{fill:#5AAA2D;}
	.st1{fill:#FFFFFF;}
</style>
<path class="st0" d="M70.1,109.3c-14.6,0-28.5-2.8-40.2-8.2c-16.8-7.8-27.3-20-29.5-34.4c-2.2-14.4,4.2-29.2,18-41.6
	C31.9,13,50.9,4.6,72,1.4c21.1-3.2,41.8-0.8,58.3,6.8c16.8,7.8,27.3,20,29.5,34.4l0,0c2.2,14.4-4.2,29.2-18,41.6
	c-13.5,12.1-32.5,20.6-53.6,23.8C82.1,108.9,76.1,109.3,70.1,109.3z"/>
<path class="st0" d="M86.2,106.9l-4.8,1.3c0.1,0.2,5.7,21.8-5.9,40.9c-7.1,11.6-19,20-35.5,24.9c4.1-5.3,6-11.5,6.1-11.8
	c0.4-1.3-0.4-2.7-1.7-3.1c-1.3-0.4-2.7,0.4-3.1,1.7c-1,3.3-5,12.5-11.2,15.3c-1,0.4-1.6,1.5-1.5,2.6c0.1,1.1,1,2,2.1,2.1l22.3,3.4
	c0.1,0,0.3,0,0.4,0c1.2,0,2.3-0.9,2.5-2.1c0.2-1.4-0.7-2.6-2.1-2.8l-9.3-1.4c16.1-5.4,28-14.1,35.2-26.1
	C92.4,130.7,86.5,107.9,86.2,106.9z"/>
<g>
	<path class="st1" d="M41,40.4c-0.1,0.1-0.1,0.2,0,0.3c-0.2,0.1,0,0.2-0.1,0.4c-0.1,0.1,0.1,0.4-0.1,0.3c0,0.1,0,0.1-0.1,0.1
		c0.1,0.2-0.1,0.1-0.1,0.2c-2.1,1.9-5.5-0.6-7.6,1.6c-1.5,3.3-1.1,7.5,1.7,10.1c3.1,1.4,7,1.3,9.1-1.3c0.9-0.4,1.3-1.5,2.3-1.6
		c0,0.3-0.1,0.6-0.2,0.8c-4,5.6-9.9,5.8-13.9,4.1c-5-2.2-6.5-10.5-2.9-15c1.3-2.9,5.3-4.2,8.1-4.9c1.7,0.4,3.5,1.9,3.8,3.8L41,40.4z
		"/>
	<path class="st1" d="M48.3,42.6c0.9,0.3,1.7,1.6,0.9,2.5c-0.3,1.4-0.7,3.9,1.1,4.6c1.2,0.5,2.1,0.1,2.6-0.7
		c0.9-0.9,0.6-4.1-0.1-5.2c-1.4,0.2-2.8-0.3-3-1.9c0-1.4,0.5-1.8,1.7-2.1c1.5,0,1.8,0.6,2.7,1.8l0.1-0.1c0.5-0.2,0.6-0.7,0.8-1
		c0.2-0.3,0.8-0.5,0.8,0c0.4,1-0.7,1.5-1.3,2.1c1.7,2,2.1,6.2,0.4,8.6c-1,0.9-2.1,1.2-3.6,1.6c-3.1,1.1-8-1.5-7.4-5.2
		c-0.2-1.6,0-3.2,1.5-4.3c0.3-0.4,0.7-0.6,1.2-0.7c0.5-0.1,1-0.1,1.5-0.2L48.3,42.6z M52.2,42.9c0.1-0.6-0.1-1.5-0.9-1.8
		c-0.5-0.2-0.4,0.3-0.4,0.9c0.1,0.1,0.1,0.3,0.1,0.3c0.1,0.2,0,0.3,0.2,0.4C51.4,42.8,52,42.9,52.2,42.9z"/>
	<path class="st1" d="M71.9,42c0.2-1.4,1.8-3.7,3-4.1c2.2-0.7,3.5,0.5,4,2.3c0.8,2,2.5,4.5,5.1,2.7c0.5-0.5,0.9-0.9,1.4-1.6
		c0.6-1.3,1.3-0.1,0.7,0.9c-2.5,4.7-8,2.5-9.1-0.1c-1-0.6-1.9-1.3-2.5,0.9c-0.6,1.9-1.5,5-3,5.7c-2.2,0.8-1.3-6.3-3.8-5.9
		c-1.9,0.3-3.6,5-4,7.1c-0.5,1.2-0.9,3-2.4,3.4c-2.2,0.6-2.6-5.8-2.4-10.7c-0.2-3.2,0.5-4.3,2.2-5.5c2.8-1.8,3.2,1.2,3.4,3.2
		c0,0.1,0.1,0.2,0,0.2c1-2.9,5.2-5.8,6.4-3.2C71.1,38.6,71.6,40.2,71.9,42z M66.4,34.8c0.2,0,0.3-0.1,0.3-0.2c3-0.1,4.3-2.5,6.7-4
		c0.5-0.3,0.8-0.7,1.3-1c0.6-0.6,1.4-0.5,2.1-0.6c0.4,0.2,0.9,0,1.3,0.3c-2.3,3.7-7.2,5-11.3,6.1L66.4,34.8z"/>
	<path class="st1" d="M98.7,38.5c0.2,1,1.4,1.8,2.6,1.4c1.9-0.4,2.8-1.7,4.4-2.7c0.9-0.6,1.3-0.2,0.5,0.6c-1.4,2-3.1,3.4-5.5,3.9
		l-0.2,0.1c-3,0-4.4-1.1-5-3.1L95.2,38c-0.5-1.2-0.8-1.5-1.5-1.4c-0.9,0.2-2.8,3.7-3.3,5.3c-0.7,2.2-0.9,4-1.2,6.7
		c-0.4,3.7,0,6.3-2,6.9l-0.3,0c-1.2,0-1.6-2.4-1.7-4.3c-0.5-6.4-0.8-14.9-0.2-20.5c0.1-1.5,1.1-2.8,2.5-3.1c1-0.2,2,0.4,2.4,2.1
		l0,0.1c0.3,1.5-1.7,7.8-1.6,12.2c1.1-5.5,3.3-9.3,5-9.5C96.2,31.9,97.8,35.6,98.7,38.5z"/>
	<path class="st1" d="M116.6,32.3c-0.1,1-0.2,2,0,3c0.2,0.9,1,1.9,2,2c1.4-0.2,2.8-2.3,3.4-3c1.1-0.7,0.3,0.9-0.1,1.3
		c-0.7,1-2.7,3-4,3.2c-1.5,0.4-3.4-0.6-3.8-2c-1.3,3.1-3.1,4.9-6.6,4.9c-4-0.7-5.5-8.1-4.4-11.5c0.3-1.5,1.8-3,3.4-2.4
		c0.6,0.2,1,0.8,1.1,1.4c0.1,0.6,0.1,1.3-0.1,1.9c-0.1,1.1-1,4.7-0.1,5.9c0.3,0.8,1.1,1.2,1.9,1c1.2-0.4,1.9-0.9,2.6-1.9
		c1-1.4,1.2-4.1,1.3-5.8c0.3-0.9,0.8-2,1.9-2.1C116.6,28.9,116.8,31,116.6,32.3z"/>
	<path class="st1" d="M33.8,82.5c0.2-1.1,2.3-1.9,4-0.9c2,1.1,3.2-0.1,4-1.4c1.4-2.7,2-5.4,3.7-8c2.3,3.3,4.3,9.6,6.9,9
		c2-1,2.1-2.1,3.1-2.8c0.4,1.7-0.8,3-1.9,3.6c-2.9,1.4-5.1-0.1-6.2-2.9c-0.4-0.2-0.7-1.1-1.1-1.4c0-0.1-0.2-0.3-0.2-0.1
		c-2.3,3.9-2.1,9.6-7.8,9.4c-1.9,0-4.6-1.3-4.7-3.5l0.1-0.1L33.8,82.5z"/>
	<path class="st1" d="M67.3,73.3c-0.1,1-0.2,2,0,3c0.2,0.9,1,1.9,2,2c1.4-0.2,2.8-2.3,3.4-3c1.1-0.7,0.3,0.9-0.1,1.3
		c-0.7,1-2.7,3-4,3.2c-1.5,0.4-3.4-0.6-3.8-2c-1.3,3.1-3.1,4.9-6.6,4.9c-4-0.7-5.5-8.1-4.4-11.5c0.3-1.5,1.8-3,3.4-2.4
		c0.6,0.2,1,0.8,1.1,1.4c0.1,0.6,0.1,1.3-0.1,1.9c-0.1,1.1-1,4.7-0.1,5.9c0.3,0.8,1.1,1.2,1.9,1c1.2-0.4,1.9-0.9,2.6-1.9
		c1-1.4,1.2-4.1,1.3-5.8c0.3-0.9,0.8-2,1.9-2.1C67.4,69.9,67.6,72,67.3,73.3z"/>
	<path class="st1" d="M71.3,69.5c-0.1-2.9,0.9-5.8,3.8-4.5c2.5,0.6,1.8,3.3,1.6,5.6c-0.7,2-0.9,3.8,0.6,5.7c1.9,0.7,3.3,0,4.8-1.1
		c-1.6-2.6-2-6.8-1.3-9c0.3-1.5,1.8-3,3.4-2.4c0.6,0.2,1,0.8,1.1,1.4c0.1,0.6,0.1,1.3-0.1,1.9c-0.1,1.1-1,4.7-0.1,5.9
		c0.3,0.8,1.1,1.2,1.9,1c1.2-0.4,1.9-0.9,2.6-1.9c1-1.4,0.6-4,0.7-5.6c0.3-0.9,0.8-2,1.9-2.1c1.4,0.7,1.6,2.8,1.4,4.1
		c-0.1,1,0.4,1.9,0.6,2.9c0.2,0.9,1,1.9,2,2c0.7-0.1,1.4-0.7,2-1.4c1-0.9,1.7-0.2,0.4,1l-0.1,0c-0.9,1-2.2,1.7-3.1,1.8
		c-1.5,0.4-3.4-0.6-3.8-2c-1.3,3.1-3.1,4.9-6.6,4.9c-0.9-0.2-1.8-0.7-2.4-1.5c-0.8,1.6-2.6,2.8-4.5,3.2c-1.9,0.4-3.9,0.1-5.2-1.3
		c-1.3-1.7-1.5-4.2-1.7-5.9L71.3,69.5z"/>
	<path class="st1" d="M102.8,61.7c0,0.7-1,6-0.4,6.5c1.3-2.5,6-1.6,6.5-7c0.5-0.6,0.8-1.5,1.7-1.7c0.3-0.2,1.1,0.1,1.4,0.1
		c1.3,0.9,0.8,2.3,0.5,3.4c-0.8,2.2-1.2,4,0.7,5.6c1.4,0.2,4.8-2.5,5.6-3.2c0-0.2,0.3-0.1,0.4-0.3c-0.2,1.8-4.8,6.3-8.2,5.3
		c-1.5-1.5-2.3-2.2-2-4.8c-0.1-0.3,0.1-0.6-0.1-0.9c-1.3,3.6-4.5,2.9-6.5,5.8c-0.5,1.8,0.1,4.7-1.8,5.2c-0.1-0.1-0.2-0.1-0.2-0.1
		c-0.1,0-0.2,0-0.2-0.1c0-0.2-0.2-0.2-0.3-0.4c-2.4-2.7-4.5-10.6-2.8-14.2c0.6-0.9,4.7-1.9,5.6,0.3L102.8,61.7z"/>
	<path class="st1" d="M120.3,65.8c0.2,0.5,0.6,0.6,1.1,0.8c2.5,0.4,3.9-0.5,5.4-1.3c0.8-0.3,2.7-2.1,3.5-2.3
		c0.3-0.1,0.2,0.2,0.3,0.3c-1.5,2.5-6.2,5-9.1,5.4c-3.1,0.5-5-1.4-5.6-3.9c-0.6-2.4,0.1-5.5,2.2-7.1c1.9-1.7,4.9-2.3,6.5-1.2
		c2.3,2.5,0.3,8.4-3.8,9.1L120.3,65.8z M119.6,64.7c0.7-0.5,2.5-3.1,2.4-4.6c-0.1-0.9-0.9-1.1-1.6-0.5
		C119.3,60.8,118.9,63.1,119.6,64.7z"/>
	<path class="st1" d="M133,63.1c0.2,0.5,0.6,0.6,1.1,0.8c2.5,0.4,3.9-0.5,5.4-1.3c0.8-0.3,2.7-2.1,3.5-2.3c0.3-0.1,0.2,0.2,0.3,0.3
		c-1.5,2.5-6.2,5-9.1,5.4c-3.1,0.5-5-1.4-5.6-3.9c-0.6-2.4,0.1-5.5,2.2-7.1c1.9-1.7,4.9-2.3,6.5-1.2c2.3,2.5,0.3,8.4-3.8,9.1
		L133,63.1z M132.4,62c0.7-0.5,2.5-3,2.4-4.6c-0.1-0.9-0.9-1.1-1.6-0.5C132,58,131.7,60.4,132.4,62z"/>
</g>
</svg>
