<?xml version="1.0" encoding="utf-8"?>
<!-- Generator: Adobe Illustrator 20.0.0, SVG Export Plug-In . SVG Version: 6.00 Build 0)  -->
<svg version="1.1" id="Layer_1" xmlns="http://www.w3.org/2000/svg" xmlns:xlink="http://www.w3.org/1999/xlink" x="0px" y="0px"
	 width="57.5px" height="68px" viewBox="0 0 57.5 68" style="enable-background:new 0 0 57.5 68;" xml:space="preserve">
<style type="text/css">
	.st0{fill:#F04D23;}
	.st1{fill:#FBBB86;}
</style>
<path class="st0" d="M9,13.8c0,0.5,0.4,0.7,0.8,0.4l5.4-3.8c0.5-0.3,0.4-0.8,0-1.2L9.8,5.3C9.4,5,9,5.2,9,5.8v2H1c-0.6,0-1,0.4-1,1
	v2c0,0.6,0.5,1,1,1h8V13.8z"/>
<path class="st0" d="M46.5,13.8c0,0.5-0.4,0.7-0.8,0.4l-5.4-3.8c-0.5-0.3-0.5-0.8,0-1.2l5.4-3.8c0.5-0.3,0.8-0.1,0.8,0.4v2h8
	c0.6,0,1,0.4,1,1v2c0,0.6-0.5,1-1,1h-8V13.8z"/>
<path class="st1" d="M19.6,67.2c0.4,0.5,1,0.8,1.6,0.8h30c0.8,0,1.6-0.5,1.9-1.3c0-0.1,0.5-1.4,0.7-2c0.5-1.5,1-3.2,1.5-5
	c0.8-3,1.5-5.9,1.8-8.7c0.8-5.4,0.5-9.8-1.2-13c-1.9-3.6-5.9-6.1-11.2-7.9c-2.5-0.8-5.2-1.4-7.9-1.8c-0.9-0.1-1.7-0.2-1.7-0.2V7
	c0-3.9-3.1-7-7-7h-1c-3.9,0-7,3.1-7,7l0,34.8l-5.5-4.4C10.3,33.9,4.2,35,1.3,39.7l-0.8,1.2c-0.4,0.7-0.4,1.6,0.1,2.3L19.6,67.2z"/>
</svg>
