<svg xmlns="http://www.w3.org/2000/svg" id="Layer_1" width="57.5" height="68">
  <style>
    .st0{fill:#F04D23;} .st1{fill:#FBBB86;}
  </style>
  <path d="M9 13.8c0 .5.4.7.8.4l5.4-3.8c.5-.3.4-.8 0-1.2l-5.4-4C9.4 5 9 5.2 9 6v2H1c-.6 0-1 .4-1 1v2c0 .6.5 1 1 1h8v2zm37.5 0c0 .5-.4.7-.8.4l-5.4-3.8c-.5-.3-.5-.8 0-1.2l5.4-3.8c.5-.3.8 0 .8.4v2h8c.6 0 1 .4 1 1v2c0 .6-.5 1-1 1h-8v2z" class="st0"/>
  <path d="M19.6 67.2c.4.5 1 .8 1.6.8h30c.8 0 1.6-.5 2-1.3l.6-2 1.5-5c.8-3 1.5-6 1.8-8.7 1-5.4 1-9.8-1-13-2-3.6-6-6-11-8-2.5-.7-5.2-1.3-8-1.7l-1.6-.2V7c0-4-3-7-7-7h-1c-3.8 0-7 3-7 7v34.8L15 37.4C10.2 34 4 35 1.2 39.7L.5 41c-.4.6-.4 1.5 0 2.2l19 24z" class="st1"/>
</svg>
