<?xml version="1.0" encoding="utf-8"?>
<!-- Generator: Adobe Illustrator 20.0.0, SVG Export Plug-In . SVG Version: 6.00 Build 0)  -->
<svg version="1.1" id="Layer_1" xmlns="http://www.w3.org/2000/svg" xmlns:xlink="http://www.w3.org/1999/xlink" x="0px" y="0px"
	 width="326.1px" height="85.9px" viewBox="0 0 326.1 85.9" style="enable-background:new 0 0 326.1 85.9;" xml:space="preserve">
<style type="text/css">
	.st0{clip-path:url(#SVGID_2_);fill:url(#SVGID_3_);}
	.st1{clip-path:url(#SVGID_5_);fill:url(#SVGID_6_);}
	.st2{clip-path:url(#SVGID_8_);fill:url(#SVGID_9_);}
	.st3{clip-path:url(#SVGID_11_);fill:url(#SVGID_12_);}
	.st4{clip-path:url(#SVGID_14_);fill:url(#SVGID_15_);}
	.st5{clip-path:url(#SVGID_17_);fill:url(#SVGID_18_);}
	.st6{clip-path:url(#SVGID_20_);fill:#02569A;}
	.st7{clip-path:url(#SVGID_20_);fill:#FFFFFF;}
</style>
<g>
	<defs>
		<path id="SVGID_1_" d="M48.5,0c-2,0-2.5,1.8-1.3,3.9c2.1,3.5,6.4,7.3,14,7.3c4.6,0,5.2-0.6,5.2-0.6s-3.3-0.1-9.1-2.4
			c-4.7-1.9-6.3-5.5-6.3-5.5c5.3,4,11.9,4.7,16.5,6.9c3.6,1.7,7.4,4.4,7.5,11.9c0.4,15.3-9.9,12.9-15.1,12.9V19.9
			c0-6.4-11.1-5.8-11.1-5.8v27.9c23.9,1.7,37.6-2,37.7-19.5C86.5,5.7,75.1,4,67.4,2.5c0.4,0.3,0.9,0.7,1.3,1.2c1.1,1.4,1,2.5,1,2.5
			s-3.6-4-7.2-4.4c-1.4-0.1-2.4-0.1-3.3,0c-2,0.2-3.8,0.4-8.9-1.4C49.6,0.1,49,0,48.5,0L48.5,0z"/>
	</defs>
	<clipPath id="SVGID_2_">
		<use xlink:href="#SVGID_1_"  style="overflow:visible;"/>
	</clipPath>
	
		<linearGradient id="SVGID_3_" gradientUnits="userSpaceOnUse" x1="0" y1="85.9396" x2="1" y2="85.9396" gradientTransform="matrix(0 -42.4324 -42.4324 0 3712.8684 42.4323)">
		<stop  offset="0" style="stop-color:#82BA26"/>
		<stop  offset="0.9458" style="stop-color:#00853E"/>
		<stop  offset="1" style="stop-color:#00853E"/>
	</linearGradient>
	<rect x="46" y="0" class="st0" width="40.6" height="43.7"/>
</g>
<g>
	<defs>
		<path id="SVGID_4_" d="M91.5,4.5v38.2c0,0,12.4,0.7,12.4-9.7V20.2c-3-2.5-6.6-5.1-8.8-7.9c-1.5-1.8-2.4-4.1-2.9-6.2
			c-0.1-0.5-0.5-1.7-0.5-1.7C91.6,4.5,91.6,4.5,91.5,4.5C91.5,4.5,91.5,4.5,91.5,4.5"/>
	</defs>
	<clipPath id="SVGID_5_">
		<use xlink:href="#SVGID_4_"  style="overflow:visible;"/>
	</clipPath>
	
		<linearGradient id="SVGID_6_" gradientUnits="userSpaceOnUse" x1="0" y1="85.9341" x2="1" y2="85.9341" gradientTransform="matrix(0 -38.1867 -38.1867 0 3379.209 42.6563)">
		<stop  offset="0" style="stop-color:#82BA26"/>
		<stop  offset="0.9458" style="stop-color:#00853E"/>
		<stop  offset="1" style="stop-color:#00853E"/>
	</linearGradient>
	<rect x="91.5" y="4.5" class="st1" width="12.4" height="38.8"/>
</g>
<g>
	<defs>
		<path id="SVGID_7_" d="M139.2,4.5c0,0-0.4,1.1-0.5,1.7c-0.5,2.1-1.4,4.4-2.9,6.2c-2.3,2.8-5.8,5.4-8.8,7.9V33
			c0,10.4,12.4,9.7,12.4,9.7V4.5C139.4,4.5,139.3,4.5,139.2,4.5C139.2,4.5,139.2,4.5,139.2,4.5"/>
	</defs>
	<clipPath id="SVGID_8_">
		<use xlink:href="#SVGID_7_"  style="overflow:visible;"/>
	</clipPath>
	
		<linearGradient id="SVGID_9_" gradientUnits="userSpaceOnUse" x1="0" y1="85.9341" x2="1" y2="85.9341" gradientTransform="matrix(0 -38.1867 -38.1867 0 3414.6758 42.6563)">
		<stop  offset="0" style="stop-color:#82BA26"/>
		<stop  offset="0.9458" style="stop-color:#00853E"/>
		<stop  offset="1" style="stop-color:#00853E"/>
	</linearGradient>
	<rect x="126.9" y="4.5" class="st2" width="12.4" height="38.8"/>
</g>
<g>
	<defs>
		<path id="SVGID_10_" d="M115.7,22.8L115.7,22.8c1.3-5.4,3.9-7.9,5.7-9.9c3.9-4.3,8.3-5,8.3-5c-3.2,1.9-6,5.1-8.6,8.7
			c-2.4,3.3-4.9,7.1-5.6,11.4c-0.7-4.3-3.2-8.1-5.6-11.4c-2.6-3.6-5.5-6.9-8.6-8.7c0,0,4.4,0.6,8.3,5c1.8,2,4.4,4.5,5.7,9.9h0
			c0,0.1,0.1,0.1,0.2,0.1C115.6,22.9,115.7,22.9,115.7,22.8 M92.7,3.7c0.2,2.1,1.1,5,3.2,7.5c4.7,5.8,16.1,12.2,19.2,17.7
			c0.1,0.2,0.3,0.3,0.4,0.3c0.1,0,0.2-0.1,0.4-0.3c3.2-5.5,14.5-12,19.2-17.7c2-2.5,2.9-5.2,3.1-7.3c0.3-2-1.8-2.4-4-1.3
			c-1.2,0.6-2.7,1.3-4.2,1.8c-14.6,5-14.5,14.4-14.6,15.1c-0.1-0.7,0.2-10.1-14.6-15.1C99.1,3.8,97.4,3,96,2.2
			c-0.6-0.3-1.2-0.5-1.7-0.5C93.3,1.7,92.5,2.4,92.7,3.7"/>
	</defs>
	<clipPath id="SVGID_11_">
		<use xlink:href="#SVGID_10_"  style="overflow:visible;"/>
	</clipPath>
	
		<linearGradient id="SVGID_12_" gradientUnits="userSpaceOnUse" x1="-1.373896e-05" y1="85.9321" x2="1" y2="85.9321" gradientTransform="matrix(0 -27.4879 -27.4879 0 2477.5999 29.2197)">
		<stop  offset="0" style="stop-color:#82BA26"/>
		<stop  offset="0.9458" style="stop-color:#00853E"/>
		<stop  offset="1" style="stop-color:#00853E"/>
	</linearGradient>
	<rect x="92.5" y="1.4" class="st3" width="45.9" height="27.8"/>
</g>
<g>
	<defs>
		<path id="SVGID_13_" d="M16.6,2.3C6.4,5.1,0,13.2,0,22.2c0,11.5,10.4,21.5,24.1,21.2c14.2-0.2,18.7-8.7,19.3-10.9
			c0.4-1.3,0.3-2.2-1.1-1.3c-8.6,6.2-24.3,5.7-26.5-8.6C15.2,18.3,17,12,20.8,9.5c-6.9-3.4-2.6-7.2-3.9-7.2
			C16.9,2.2,16.8,2.3,16.6,2.3"/>
	</defs>
	<clipPath id="SVGID_14_">
		<use xlink:href="#SVGID_13_"  style="overflow:visible;"/>
	</clipPath>
	
		<linearGradient id="SVGID_15_" gradientUnits="userSpaceOnUse" x1="0" y1="85.9316" x2="1" y2="85.9316" gradientTransform="matrix(0 -41.2116 -41.2116 0 3563.3206 43.4498)">
		<stop  offset="0" style="stop-color:#82BA26"/>
		<stop  offset="0.9458" style="stop-color:#00853E"/>
		<stop  offset="1" style="stop-color:#00853E"/>
	</linearGradient>
	<rect x="0" y="2.2" class="st4" width="43.9" height="41.4"/>
</g>
<g>
	<defs>
		<path id="SVGID_16_" d="M26.3,0.8c-2.5,0-3.9,0.3-5.8,0.8c1.6,1.8,4.1,1.8,12,3.3c4.7,0.9,5.2,2.7,5.2,2.7
			c-5.2-1.7-5.7-0.9-12.2-1.8C20,5,18.5,2.2,18.5,2.2c-2,3.1,2,5.5,2,5.5s2.8,1.8,7.8,1.8c2,0,3.2-0.2,6.6-0.2
			c1.1,0,2.2,0.1,3.2,0.3c2,0.3,3.6-1.1,2.4-3.2C39,3.7,35.4,0.8,27,0.8C26.8,0.8,26.5,0.8,26.3,0.8"/>
	</defs>
	<clipPath id="SVGID_17_">
		<use xlink:href="#SVGID_16_"  style="overflow:visible;"/>
	</clipPath>
	
		<linearGradient id="SVGID_18_" gradientUnits="userSpaceOnUse" x1="0" y1="85.9699" x2="1" y2="85.9699" gradientTransform="matrix(0 -8.7384 -8.7384 0 780.4153 9.5242)">
		<stop  offset="0" style="stop-color:#82BA26"/>
		<stop  offset="0.9458" style="stop-color:#00853E"/>
		<stop  offset="1" style="stop-color:#00853E"/>
	</linearGradient>
	<rect x="16.6" y="0.8" class="st5" width="25.2" height="9"/>
</g>
<g>
	<defs>
		<rect id="SVGID_19_" y="0" width="326.1" height="85.9"/>
	</defs>
	<clipPath id="SVGID_20_">
		<use xlink:href="#SVGID_19_"  style="overflow:visible;"/>
	</clipPath>
	<path class="st6" d="M170.8,3V6c7.5,0.4,15.5,4.5,15.5,15.1c0,10.4-7.8,14.5-15.6,15.1v3.1h-7.5v-3.1c-7.6-0.4-15.5-4.5-15.5-14.8
		c0-10.8,8.7-14.9,15.6-15.4V3H170.8z M163.2,11.4c-3.3,0.3-7.5,2.8-7.5,9.8c0,6.4,4.2,9.3,7.5,9.6V11.4z M170.7,30.8
		c3.2-0.3,7.6-2.7,7.6-9.7c0-6.8-4-9.3-7.6-9.7V30.8z"/>
	<path class="st6" d="M198.9,13.6v8.2c0,3.7-0.2,5.9-0.3,9.5h0.2c1.2-2.8,1.7-4.4,2.8-6.8l5.1-10.8h10.3v24.2h-7.5v-8.1
		c0-3.4,0.1-4.6,0.4-10.3h-0.2c-1,2.7-1.5,4.1-2.6,6.4c-1.8,4-3.6,8-5.4,12h-10.2V13.6H198.9z"/>
	<polygon class="st6" points="243.5,13.6 243.5,19.6 235.9,19.6 235.9,37.9 228,37.9 228,19.6 220.4,19.6 220.4,13.6 	"/>
	<polygon class="st6" points="254.9,13.6 254.9,22.3 263.4,22.3 263.4,13.6 271.3,13.6 271.3,37.9 263.4,37.9 263.4,28.3 
		254.9,28.3 254.9,37.9 247,37.9 247,13.6 	"/>
	<path class="st6" d="M283.7,28.2c0.2,2.9,3.7,4.4,7.4,4.4c2.8,0,5.1-0.3,7.4-1.1l1,5.3c-2.8,1.1-5.9,1.7-9.5,1.7
		c-8.7,0-13.8-5-13.8-12.5c0-5.5,3.7-12.9,13.1-12.9c8.8,0,11.7,6.8,11.7,12.3c0,1.1-0.1,2.3-0.3,2.8H283.7z M293.6,22.8
		c0-1.4-0.8-4.7-4.7-4.7c-3.6,0-5,2.8-5.3,4.7H293.6z"/>
	<path class="st6" d="M325.5,37.2c-1.6,0.7-4.5,1.3-7.6,1.3c-8.4,0-13.7-5-13.7-12.5c0-6.9,5-12.9,14.8-12.9c2.1,0,4.6,0.3,6.5,1
		l-1.3,5.8c-1-0.5-2.5-0.9-4.8-0.9c-4.3,0-7.1,2.8-7,6.6c0,4.5,3.4,6.7,7.2,6.7c2.1,0,3.7-0.3,5-0.9L325.5,37.2z"/>
	<path class="st6" d="M323.2,85.9H2.8c-1.6,0-2.8-1.3-2.8-2.8V57.8C0,56.2,1.3,55,2.8,55h320.4c1.6,0,2.8,1.3,2.8,2.8v25.3
		C326.1,84.7,324.8,85.9,323.2,85.9"/>
	<path class="st7" d="M24.2,76.2c-0.6,0.3-2.2,0.7-4.2,0.7c-5.5,0-8.4-3.2-8.4-7.3c0-4.8,3.7-7.8,8.7-7.8c2,0,3.5,0.4,4.1,0.7
		l-0.7,2.7c-0.8-0.3-1.9-0.6-3.2-0.6c-2.9,0-5.2,1.6-5.2,4.8c0,2.7,1.9,4.7,5.2,4.7c1.2,0,2.5-0.2,3.2-0.6L24.2,76.2z"/>
	<path class="st7" d="M29.8,66v3.6c0,1.6-0.1,2.6-0.2,4.1h0.1c0.5-1.2,0.8-1.9,1.2-3l2.2-4.7h4.5v10.6h-3.3v-3.5
		c0-1.5,0.1-2,0.2-4.5h-0.1c-0.4,1.2-0.7,1.8-1.1,2.8c-0.8,1.7-1.6,3.5-2.4,5.2h-4.4V66H29.8z"/>
	<path class="st7" d="M50.4,66v10.6h-3.4v-8h-2.5v1.8c0,2.5-0.3,4.2-1.3,5.1c-0.8,0.9-1.8,1.3-3.6,1.3l-0.3-2.6
		c0.5-0.1,1-0.2,1.3-0.5c0.7-0.6,0.8-1.5,0.8-3.5V66H50.4z"/>
	<path class="st7" d="M62.6,74c0,1.1,0.1,2.1,0.2,2.6h-3.1l-0.2-1.1h-0.1c-0.7,0.9-1.9,1.3-3.3,1.3c-2.3,0-3.6-1.6-3.6-3.2
		c0-2.7,2.5-4.1,6.7-4.1v-0.1c0-0.5-0.2-1.3-2.1-1.3c-1.1,0-2.4,0.4-3.2,0.8l-0.6-2.2c0.8-0.5,2.3-1,4.4-1c3.6,0,5,2,5,4.6V74z
		 M59.3,71.7c-2,0-3.4,0.4-3.4,1.6c0,0.8,0.5,1.2,1.4,1.2c0.9,0,1.7-0.6,1.9-1.3c0-0.2,0.1-0.4,0.1-0.6V71.7z"/>
	<path class="st7" d="M67.1,76.9c-1.2,0-2-0.9-2-2c0-1.2,0.8-2,2-2c1.2,0,2,0.8,2,2C69.1,76,68.3,76.9,67.1,76.9L67.1,76.9z"/>
	<path class="st7" d="M88.4,62V74l1.6,0.1l-0.2,6.4h-2.6L87,76.6h-9.3l-0.2,3.9h-2.6l-0.1-6.4L76,74c0.6-1,1.2-2.1,1.5-3.2
		c0.5-1.4,0.6-3,0.6-4.8v-4H88.4z M81.4,66.8c0,1.7-0.2,3.3-0.7,4.8c-0.3,0.8-0.7,1.6-1.1,2.3H85v-9.1h-3.6V66.8z"/>
	<path class="st7" d="M91.8,66.2c0.8-0.1,2.8-0.3,4.7-0.3c1.8,0,5.4,0.2,5.4,2.7c0,1.4-1.1,2-2.2,2.2v0.1c1.6,0.3,2.7,1.1,2.7,2.6
		c0,3.1-4.3,3.3-6.4,3.3c-1.6,0-3.4-0.1-4.1-0.2V66.2z M95.2,74.7c0.4,0,0.6,0,1.2,0c1.2,0,2.3-0.3,2.3-1.3c0-0.9-0.8-1.3-2.5-1.3
		h-1V74.7z M95.3,70.1h0.9c1.4,0,2.3-0.3,2.3-1.1c0-0.6-0.5-1.1-2-1.1c-0.5,0-0.8,0-1.3,0.1V70.1z"/>
	<path class="st7" d="M107.8,66v3.6c0,1.6-0.1,2.6-0.2,4.1h0.1c0.5-1.2,0.8-1.9,1.2-3l2.2-4.7h4.5v10.6h-3.3v-3.5
		c0-1.5,0.1-2,0.2-4.5h-0.1c-0.4,1.2-0.7,1.8-1.1,2.8c-0.8,1.7-1.6,3.5-2.4,5.2h-4.4V66H107.8z"/>
	<path class="st7" d="M120.9,66l2.6,4.2h0.3V66h3.3v4.2h0.3l2.6-4.2h3.9l-4,4.5c1.3,0.2,2.2,1.3,2.7,2.6c0.5,1.3,0.8,2.3,1.4,3.4
		h-3.5c-0.3-0.5-0.6-1.3-1-2.4c-0.5-1.2-1.2-1.8-2.1-1.8h-0.3v4.1h-3.3v-4.1h-0.3c-1,0-1.7,0.5-2.2,1.8c-0.4,1.1-0.7,1.9-1,2.4H117
		c0.5-1.1,0.9-2.1,1.4-3.4c0.5-1.4,1.4-2.5,2.7-2.6l-4-4.5H120.9z"/>
	<path class="st7" d="M137.9,72.4c0.1,1.3,1.6,1.9,3.2,1.9c1.2,0,2.2-0.1,3.2-0.5l0.5,2.3c-1.2,0.5-2.6,0.7-4.2,0.7
		c-3.8,0-6-2.2-6-5.5c0-2.4,1.6-5.6,5.7-5.6c3.8,0,5.1,3,5.1,5.4c0,0.5-0.1,1-0.1,1.2H137.9z M142.2,70.1c0-0.6-0.3-2.1-2.1-2.1
		c-1.6,0-2.2,1.2-2.3,2.1H142.2z"/>
	<polygon class="st7" points="150.9,66 150.9,69.8 154.6,69.8 154.6,66 158,66 158,76.6 154.6,76.6 154.6,72.4 150.9,72.4 
		150.9,76.6 147.5,76.6 147.5,66 	"/>
	<path class="st7" d="M164.1,66v3.6c0,1.6-0.1,2.6-0.2,4.1h0.1c0.5-1.2,0.8-1.9,1.2-3l2.2-4.7h4.5v10.6h-3.3v-3.5
		c0-1.5,0.1-2,0.2-4.5h-0.1c-0.4,1.2-0.7,1.8-1.1,2.8c-0.8,1.7-1.6,3.5-2.4,5.2h-4.4V66H164.1z"/>
	<path class="st7" d="M177.4,72.4c0.1,1.3,1.6,1.9,3.2,1.9c1.2,0,2.2-0.1,3.2-0.5l0.5,2.3c-1.2,0.5-2.6,0.7-4.2,0.7
		c-3.8,0-6-2.2-6-5.5c0-2.4,1.6-5.6,5.7-5.6c3.8,0,5.1,3,5.1,5.4c0,0.5-0.1,1-0.1,1.2H177.4z M181.7,70.1c0-0.6-0.3-2.1-2.1-2.1
		c-1.6,0-2.2,1.2-2.3,2.1H181.7z"/>
	<path class="st7" d="M188.7,76.9c-1.2,0-2-0.9-2-2c0-1.2,0.8-2,2-2c1.2,0,2,0.8,2,2C190.8,76,190,76.9,188.7,76.9L188.7,76.9z"/>
	<path class="st7" d="M211.1,70.9c-0.1-1.9-0.1-4.1-0.1-6.4h-0.1c-0.5,2-1.2,4.1-1.9,6.1l-2,5.8h-2.7l-1.7-5.8
		c-0.5-1.9-1-4.1-1.4-6.1h0c-0.1,2.1-0.2,4.5-0.2,6.4l-0.3,5.7h-3.3l0.9-14.6h4.9l1.5,4.7c0.5,1.6,1,3.5,1.3,5.3h0.1
		c0.5-1.7,1-3.7,1.5-5.3l1.7-4.7h4.7l0.8,14.6h-3.4L211.1,70.9z"/>
	<path class="st7" d="M222.6,76.9c-3.3,0-6-2.1-6-5.5c0-3.3,2.3-5.6,6.2-5.6c3.5,0,5.9,2.3,5.9,5.4
		C228.7,74.9,225.9,76.9,222.6,76.9L222.6,76.9z M222.7,74.5c1.4,0,2.4-1.1,2.4-3.1c0-1.6-0.7-3.1-2.4-3.1c-1.8,0-2.5,1.5-2.5,3.1
		C220.3,73.1,221.2,74.5,222.7,74.5L222.7,74.5z"/>
	<path class="st7" d="M240.6,66v10.6h-3.4v-8h-2.5v1.8c0,2.5-0.3,4.2-1.3,5.1c-0.8,0.9-1.8,1.3-3.6,1.3l-0.3-2.6
		c0.5-0.1,1-0.2,1.3-0.5c0.7-0.6,0.8-1.5,0.8-3.5V66H240.6z"/>
	<path class="st7" d="M248.7,76.9c-3.3,0-6-2.1-6-5.5c0-3.3,2.3-5.6,6.2-5.6c3.5,0,5.9,2.3,5.9,5.4C254.8,74.9,252,76.9,248.7,76.9
		L248.7,76.9z M248.8,74.5c1.4,0,2.4-1.1,2.4-3.1c0-1.6-0.7-3.1-2.4-3.1c-1.8,0-2.5,1.5-2.5,3.1C246.4,73.1,247.3,74.5,248.8,74.5
		L248.8,74.5z"/>
	<path class="st7" d="M267,66v8.2l1.3,0l-0.2,5.9h-2.6l-0.1-3.6h-7.2l-0.2,3.6h-2.6l-0.1-5.9l1-0.1c0.5-0.7,0.9-1.4,1.1-2.2
		c0.3-1.1,0.5-2.3,0.5-3.4V66H267z M261.1,69.9c0,0.8-0.2,1.7-0.4,2.6c-0.2,0.6-0.5,1.2-0.8,1.7h3.8v-5.6h-2.6V69.9z"/>
	<path class="st7" d="M275.4,76.9c-3.3,0-6-2.1-6-5.5c0-3.3,2.3-5.6,6.2-5.6c3.5,0,5.9,2.3,5.9,5.4
		C281.5,74.9,278.7,76.9,275.4,76.9L275.4,76.9z M275.6,74.5c1.4,0,2.4-1.1,2.4-3.1c0-1.6-0.7-3.1-2.4-3.1c-1.8,0-2.5,1.5-2.5,3.1
		C273.1,73.1,274,74.5,275.6,74.5L275.6,74.5z"/>
	<path class="st7" d="M292.3,76.3c-0.7,0.3-1.9,0.6-3.3,0.6c-3.7,0-6-2.2-6-5.5c0-3,2.2-5.6,6.4-5.6c0.9,0,2,0.2,2.8,0.5l-0.6,2.5
		c-0.5-0.2-1.1-0.4-2.1-0.4c-1.9,0-3.1,1.2-3.1,2.9c0,2,1.5,2.9,3.2,2.9c0.9,0,1.6-0.2,2.2-0.4L292.3,76.3z"/>
	<polygon class="st7" points="303.5,66 303.5,68.6 300.2,68.6 300.2,76.6 296.7,76.6 296.7,68.6 293.4,68.6 293.4,66 	"/>
	<path class="st7" d="M308.5,66v3.1c0.5-0.1,1.2-0.2,1.8-0.2c2.5,0,5.3,0.8,5.3,3.7c0,1.4-0.6,2.3-1.5,2.9c-1.4,1-3.7,1.2-5.3,1.2
		c-1.3,0-2.6,0-3.8-0.2V66H308.5z M308.5,74.4c0.3,0,0.6,0.1,1.3,0.1c1.1,0,2.5-0.3,2.5-1.6c0-1.4-1.6-1.6-2.6-1.6
		c-0.5,0-0.9,0.1-1.2,0.1V74.4z"/>
</g>
</svg>
