<svg xmlns="http://www.w3.org/2000/svg" id="Layer_1" width="326.1" height="85.9" xmlns:xlink="http://www.w3.org/1999/xlink">
  <style>
    .st0{clip-path:url(#SVGID_2_);fill:url(#SVGID_3_);} .st1{clip-path:url(#SVGID_5_);fill:url(#SVGID_6_);} .st2{clip-path:url(#SVGID_8_);fill:url(#SVGID_9_);} .st3{clip-path:url(#SVGID_11_);fill:url(#SVGID_12_);} .st4{clip-path:url(#SVGID_14_);fill:url(#SVGID_15_);} .st5{clip-path:url(#SVGID_17_);fill:url(#SVGID_18_);} .st6{clip-path:url(#SVGID_20_);fill:#02569A;} .st7{clip-path:url(#SVGID_20_);fill:#FFFFFF;}
  </style>
  <defs>
    <path id="SVGID_1_" d="M48.5 0c-2 0-2.5 1.8-1.3 3.9 2.1 3.5 6.4 7.3 14 7.3 4.6 0 5.2-.6 5.2-.6s-3.3-.1-9.1-2.4C52.6 6.3 51 2.7 51 2.7c5.3 4 11.9 4.7 16.5 6.9 3.6 1.7 7.4 4.4 7.5 11.9.4 15.3-9.9 12.9-15.1 12.9V19.9c0-6.4-11.1-5.8-11.1-5.8V42c23.9 1.7 37.6-2 37.7-19.5 0-16.8-11.4-18.5-19.1-20 .4.3.9.7 1.3 1.2 1.1 1.4 1 2.5 1 2.5s-3.6-4-7.2-4.4c-1.4-.1-2.4-.1-3.3 0-2 .2-3.8.4-8.9-1.4C49.6.1 49 0 48.5 0z"/>
  </defs>
  <clipPath id="SVGID_2_">
    <use xlink:href="#SVGID_1_" overflow="visible"/>
  </clipPath>
  <linearGradient id="SVGID_3_" x2="1" y1="85.94" y2="85.94" gradientUnits="userSpaceOnUse" gradientTransform="matrix(0 -42.432 -42.432 0 3712.868 42.432)">
    <stop offset="0" stop-color="#82BA26"/>
    <stop offset=".95" stop-color="#00853E"/>
    <stop offset="1" stop-color="#00853E"/>
  </linearGradient>
  <path d="M46 0h40.6v43.7H46z" class="st0"/>
  <defs>
    <path id="SVGID_4_" d="M91.5 4.5v38.2s12.4.7 12.4-9.7V20.2c-3-2.5-6.6-5.1-8.8-7.9-1.5-1.8-2.4-4.1-2.9-6.2-.1-.5-.5-1.7-.5-1.7-.1.1-.1.1-.2.1"/>
  </defs>
  <clipPath id="SVGID_5_">
    <use xlink:href="#SVGID_4_" overflow="visible"/>
  </clipPath>
  <linearGradient id="SVGID_6_" x2="1" y1="85.93" y2="85.93" gradientUnits="userSpaceOnUse" gradientTransform="matrix(0 -38.187 -38.187 0 3379.21 42.656)">
    <stop offset="0" stop-color="#82BA26"/>
    <stop offset=".95" stop-color="#00853E"/>
    <stop offset="1" stop-color="#00853E"/>
  </linearGradient>
  <path d="M91.5 4.5h12.4v38.8H91.5z" class="st1"/>
  <defs>
    <path id="SVGID_7_" d="M139.2 4.5s-.4 1.1-.5 1.7c-.5 2.1-1.4 4.4-2.9 6.2-2.3 2.8-5.8 5.4-8.8 7.9V33c0 10.4 12.4 9.7 12.4 9.7V4.5h-.2"/>
  </defs>
  <clipPath id="SVGID_8_">
    <use xlink:href="#SVGID_7_" overflow="visible"/>
  </clipPath>
  <linearGradient id="SVGID_9_" x2="1" y1="85.93" y2="85.93" gradientUnits="userSpaceOnUse" gradientTransform="matrix(0 -38.187 -38.187 0 3414.676 42.656)">
    <stop offset="0" stop-color="#82BA26"/>
    <stop offset=".95" stop-color="#00853E"/>
    <stop offset="1" stop-color="#00853E"/>
  </linearGradient>
  <path d="M126.9 4.5h12.4v38.8h-12.4z" class="st2"/>
  <defs>
    <path id="SVGID_10_" d="M115.7 22.8c1.3-5.4 3.9-7.9 5.7-9.9 3.9-4.3 8.3-5 8.3-5-3.2 1.9-6 5.1-8.6 8.7-2.4 3.3-4.9 7.1-5.6 11.4-.7-4.3-3.2-8.1-5.6-11.4-2.6-3.6-5.5-6.9-8.6-8.7 0 0 4.4.6 8.3 5 1.8 2 4.4 4.5 5.7 9.9 0 .1.1.1.2.1s.2 0 .2-.1m-23-19.1c.2 2.1 1.1 5 3.2 7.5 4.7 5.8 16.1 12.2 19.2 17.7.1.2.3.3.4.3.1 0 .2-.1.4-.3 3.2-5.5 14.5-12 19.2-17.7 2-2.5 2.9-5.2 3.1-7.3.3-2-1.8-2.4-4-1.3-1.2.6-2.7 1.3-4.2 1.8-14.6 5-14.5 14.4-14.6 15.1-.1-.7.2-10.1-14.6-15.1-1.7-.6-3.4-1.4-4.8-2.2-.6-.3-1.2-.5-1.7-.5-1 0-1.8.7-1.6 2"/>
  </defs>
  <clipPath id="SVGID_11_">
    <use xlink:href="#SVGID_10_" overflow="visible"/>
  </clipPath>
  <linearGradient id="SVGID_12_" x2="1" y1="85.93" y2="85.93" gradientUnits="userSpaceOnUse" gradientTransform="matrix(0 -27.488 -27.488 0 2477.6 29.22)">
    <stop offset="0" stop-color="#82BA26"/>
    <stop offset=".95" stop-color="#00853E"/>
    <stop offset="1" stop-color="#00853E"/>
  </linearGradient>
  <path d="M92.5 1.4h45.9v27.8H92.5z" class="st3"/>
  <defs>
    <path id="SVGID_13_" d="M16.6 2.3C6.4 5.1 0 13.2 0 22.2c0 11.5 10.4 21.5 24.1 21.2 14.2-.2 18.7-8.7 19.3-10.9.4-1.3.3-2.2-1.1-1.3-8.6 6.2-24.3 5.7-26.5-8.6-.6-4.3 1.2-10.6 5-13.1-6.9-3.4-2.6-7.2-3.9-7.2 0-.1-.1 0-.3 0"/>
  </defs>
  <clipPath id="SVGID_14_">
    <use xlink:href="#SVGID_13_" overflow="visible"/>
  </clipPath>
  <linearGradient id="SVGID_15_" x2="1" y1="85.93" y2="85.93" gradientUnits="userSpaceOnUse" gradientTransform="matrix(0 -41.212 -41.212 0 3563.32 43.45)">
    <stop offset="0" stop-color="#82BA26"/>
    <stop offset=".95" stop-color="#00853E"/>
    <stop offset="1" stop-color="#00853E"/>
  </linearGradient>
  <path d="M0 2.2h43.9v41.4H0z" class="st4"/>
  <defs>
    <path id="SVGID_16_" d="M26.3.8c-2.5 0-3.9.3-5.8.8 1.6 1.8 4.1 1.8 12 3.3 4.7.9 5.2 2.7 5.2 2.7-5.2-1.7-5.7-.9-12.2-1.8-5.5-.8-7-3.6-7-3.6-2 3.1 2 5.5 2 5.5s2.8 1.8 7.8 1.8c2 0 3.2-.2 6.6-.2 1.1 0 2.2.1 3.2.3 2 .3 3.6-1.1 2.4-3.2C39 3.7 35.4.8 27 .8h-.7"/>
  </defs>
  <clipPath id="SVGID_17_">
    <use xlink:href="#SVGID_16_" overflow="visible"/>
  </clipPath>
  <linearGradient id="SVGID_18_" x2="1" y1="85.97" y2="85.97" gradientUnits="userSpaceOnUse" gradientTransform="matrix(0 -8.738 -8.738 0 780.415 9.524)">
    <stop offset="0" stop-color="#82BA26"/>
    <stop offset=".95" stop-color="#00853E"/>
    <stop offset="1" stop-color="#00853E"/>
  </linearGradient>
  <path d="M16.6.8h25.2v9H16.6z" class="st5"/>
  <defs>
    <path id="SVGID_19_" d="M0 0h326.1v85.9H0z"/>
  </defs>
  <clipPath id="SVGID_20_">
    <use xlink:href="#SVGID_19_" overflow="visible"/>
  </clipPath>
  <path d="M170.8 3v3c7.5.4 15.5 4.5 15.5 15.1 0 10.4-7.8 14.5-15.6 15.1v3.1h-7.5v-3.1c-7.6-.4-15.5-4.5-15.5-14.8 0-10.8 8.7-14.9 15.6-15.4V3h7.5zm-7.6 8.4c-3.3.3-7.5 2.8-7.5 9.8 0 6.4 4.2 9.3 7.5 9.6V11.4zm7.5 19.4c3.2-.3 7.6-2.7 7.6-9.7 0-6.8-4-9.3-7.6-9.7v19.4zm28.2-17.2v8.2c0 3.7-.2 5.9-.3 9.5h.2c1.2-2.8 1.7-4.4 2.8-6.8l5.1-10.8H217v24.2h-7.5v-8.1c0-3.4.1-4.6.4-10.3h-.2c-1 2.7-1.5 4.1-2.6 6.4l-5.4 12h-10.2V13.6h7.4zm44.6 0v6h-7.6v18.3H228V19.6h-7.6v-6zm11.4 0v8.7h8.5v-8.7h7.9v24.3h-7.9v-9.6h-8.5v9.6H247V13.6zm28.8 14.6c.2 2.9 3.7 4.4 7.4 4.4 2.8 0 5.1-.3 7.4-1.1l1 5.3c-2.8 1.1-5.9 1.7-9.5 1.7-8.7 0-13.8-5-13.8-12.5 0-5.5 3.7-12.9 13.1-12.9 8.8 0 11.7 6.8 11.7 12.3 0 1.1-.1 2.3-.3 2.8h-17zm9.9-5.4c0-1.4-.8-4.7-4.7-4.7-3.6 0-5 2.8-5.3 4.7h10zm31.9 14.4c-1.6.7-4.5 1.3-7.6 1.3-8.4 0-13.7-5-13.7-12.5 0-6.9 5-12.9 14.8-12.9 2.1 0 4.6.3 6.5 1l-1.3 5.8c-1-.5-2.5-.9-4.8-.9-4.3 0-7.1 2.8-7 6.6 0 4.5 3.4 6.7 7.2 6.7 2.1 0 3.7-.3 5-.9l.9 5.8zm-2.3 48.7H2.8c-1.6 0-2.8-1.3-2.8-2.8V57.8C0 56.2 1.3 55 2.8 55h320.4c1.6 0 2.8 1.3 2.8 2.8v25.3c.1 1.6-1.2 2.8-2.8 2.8" class="st6"/>
  <path d="M24.2 76.2c-.6.3-2.2.7-4.2.7-5.5 0-8.4-3.2-8.4-7.3 0-4.8 3.7-7.8 8.7-7.8 2 0 3.5.4 4.1.7l-.7 2.7c-.8-.3-1.9-.6-3.2-.6-2.9 0-5.2 1.6-5.2 4.8 0 2.7 1.9 4.7 5.2 4.7 1.2 0 2.5-.2 3.2-.6l.5 2.7zM29.8 66v3.6c0 1.6-.1 2.6-.2 4.1h.1c.5-1.2.8-1.9 1.2-3l2.2-4.7h4.5v10.6h-3.3v-3.5c0-1.5.1-2 .2-4.5h-.1c-.4 1.2-.7 1.8-1.1 2.8-.8 1.7-1.6 3.5-2.4 5.2h-4.4V66h3.3zm20.6 0v10.6H47v-8h-2.5v1.8c0 2.5-.3 4.2-1.3 5.1-.8.9-1.8 1.3-3.6 1.3l-.3-2.6c.5-.1 1-.2 1.3-.5.7-.6.8-1.5.8-3.5V66h9zm12.2 8c0 1.1.1 2.1.2 2.6h-3.1l-.2-1.1h-.1c-.7.9-1.9 1.3-3.3 1.3-2.3 0-3.6-1.6-3.6-3.2 0-2.7 2.5-4.1 6.7-4.1v-.1c0-.5-.2-1.3-2.1-1.3-1.1 0-2.4.4-3.2.8l-.6-2.2c.8-.5 2.3-1 4.4-1 3.6 0 5 2 5 4.6V74zm-3.3-2.3c-2 0-3.4.4-3.4 1.6 0 .8.5 1.2 1.4 1.2.9 0 1.7-.6 1.9-1.3 0-.2.1-.4.1-.6v-.9zm7.8 5.2c-1.2 0-2-.9-2-2 0-1.2.8-2 2-2s2 .8 2 2c0 1.1-.8 2-2 2zM88.4 62v12l1.6.1-.2 6.4h-2.6l-.2-3.9h-9.3l-.2 3.9h-2.6l-.1-6.4L76 74c.6-1 1.2-2.1 1.5-3.2.5-1.4.6-3 .6-4.8v-4h10.3zm-7 4.8c0 1.7-.2 3.3-.7 4.8-.3.8-.7 1.6-1.1 2.3H85v-9.1h-3.6v2zm10.4-.6c.8-.1 2.8-.3 4.7-.3 1.8 0 5.4.2 5.4 2.7 0 1.4-1.1 2-2.2 2.2v.1c1.6.3 2.7 1.1 2.7 2.6 0 3.1-4.3 3.3-6.4 3.3-1.6 0-3.4-.1-4.1-.2V66.2zm3.4 8.5h1.2c1.2 0 2.3-.3 2.3-1.3 0-.9-.8-1.3-2.5-1.3h-1v2.6zm.1-4.6h.9c1.4 0 2.3-.3 2.3-1.1 0-.6-.5-1.1-2-1.1-.5 0-.8 0-1.3.1v2.1zm12.5-4.1v3.6c0 1.6-.1 2.6-.2 4.1h.1c.5-1.2.8-1.9 1.2-3l2.2-4.7h4.5v10.6h-3.3v-3.5c0-1.5.1-2 .2-4.5h-.1c-.4 1.2-.7 1.8-1.1 2.8-.8 1.7-1.6 3.5-2.4 5.2h-4.4V66h3.3zm13.1 0l2.6 4.2h.3V66h3.3v4.2h.3L130 66h3.9l-4 4.5c1.3.2 2.2 1.3 2.7 2.6s.8 2.3 1.4 3.4h-3.5c-.3-.5-.6-1.3-1-2.4-.5-1.2-1.2-1.8-2.1-1.8h-.3v4.1h-3.3v-4.1h-.3c-1 0-1.7.5-2.2 1.8-.4 1.1-.7 1.9-1 2.4H117c.5-1.1.9-2.1 1.4-3.4.5-1.4 1.4-2.5 2.7-2.6l-4-4.5h3.8zm17 6.4c.1 1.3 1.6 1.9 3.2 1.9 1.2 0 2.2-.1 3.2-.5l.5 2.3c-1.2.5-2.6.7-4.2.7-3.8 0-6-2.2-6-5.5 0-2.4 1.6-5.6 5.7-5.6 3.8 0 5.1 3 5.1 5.4 0 .5-.1 1-.1 1.2h-7.4zm4.3-2.3c0-.6-.3-2.1-2.1-2.1-1.6 0-2.2 1.2-2.3 2.1h4.4zm8.7-4.1v3.8h3.7V66h3.4v10.6h-3.4v-4.2h-3.7v4.2h-3.4V66zm13.2 0v3.6c0 1.6-.1 2.6-.2 4.1h.1c.5-1.2.8-1.9 1.2-3l2.2-4.7h4.5v10.6h-3.3v-3.5c0-1.5.1-2 .2-4.5h-.1c-.4 1.2-.7 1.8-1.1 2.8-.8 1.7-1.6 3.5-2.4 5.2h-4.4V66h3.3zm13.3 6.4c.1 1.3 1.6 1.9 3.2 1.9 1.2 0 2.2-.1 3.2-.5l.5 2.3c-1.2.5-2.6.7-4.2.7-3.8 0-6-2.2-6-5.5 0-2.4 1.6-5.6 5.7-5.6 3.8 0 5.1 3 5.1 5.4 0 .5-.1 1-.1 1.2h-7.4zm4.3-2.3c0-.6-.3-2.1-2.1-2.1-1.6 0-2.2 1.2-2.3 2.1h4.4zm7 6.8c-1.2 0-2-.9-2-2 0-1.2.8-2 2-2s2 .8 2 2c.1 1.1-.7 2-2 2zm22.4-6c-.1-1.9-.1-4.1-.1-6.4h-.1c-.5 2-1.2 4.1-1.9 6.1l-2 5.8h-2.7l-1.7-5.8c-.5-1.9-1-4.1-1.4-6.1-.1 2.1-.2 4.5-.2 6.4l-.3 5.7h-3.3l.9-14.6h4.9l1.5 4.7c.5 1.6 1 3.5 1.3 5.3h.1c.5-1.7 1-3.7 1.5-5.3l1.7-4.7h4.7l.8 14.6h-3.4l-.3-5.7zm11.5 6c-3.3 0-6-2.1-6-5.5 0-3.3 2.3-5.6 6.2-5.6 3.5 0 5.9 2.3 5.9 5.4 0 3.7-2.8 5.7-6.1 5.7zm.1-2.4c1.4 0 2.4-1.1 2.4-3.1 0-1.6-.7-3.1-2.4-3.1-1.8 0-2.5 1.5-2.5 3.1.1 1.7 1 3.1 2.5 3.1zm17.9-8.5v10.6h-3.4v-8h-2.5v1.8c0 2.5-.3 4.2-1.3 5.1-.8.9-1.8 1.3-3.6 1.3l-.3-2.6c.5-.1 1-.2 1.3-.5.7-.6.8-1.5.8-3.5V66h9zm8.1 10.9c-3.3 0-6-2.1-6-5.5 0-3.3 2.3-5.6 6.2-5.6 3.5 0 5.9 2.3 5.9 5.4 0 3.7-2.8 5.7-6.1 5.7zm.1-2.4c1.4 0 2.4-1.1 2.4-3.1 0-1.6-.7-3.1-2.4-3.1-1.8 0-2.5 1.5-2.5 3.1.1 1.7 1 3.1 2.5 3.1zM267 66v8.2h1.3l-.2 5.9h-2.6l-.1-3.6h-7.2l-.2 3.6h-2.6l-.1-5.9 1-.1c.5-.7.9-1.4 1.1-2.2.3-1.1.5-2.3.5-3.4V66h9.1zm-5.9 3.9c0 .8-.2 1.7-.4 2.6-.2.6-.5 1.2-.8 1.7h3.8v-5.6h-2.6v1.3zm14.3 7c-3.3 0-6-2.1-6-5.5 0-3.3 2.3-5.6 6.2-5.6 3.5 0 5.9 2.3 5.9 5.4 0 3.7-2.8 5.7-6.1 5.7zm.2-2.4c1.4 0 2.4-1.1 2.4-3.1 0-1.6-.7-3.1-2.4-3.1-1.8 0-2.5 1.5-2.5 3.1 0 1.7.9 3.1 2.5 3.1zm16.7 1.8c-.7.3-1.9.6-3.3.6-3.7 0-6-2.2-6-5.5 0-3 2.2-5.6 6.4-5.6.9 0 2 .2 2.8.5l-.6 2.5c-.5-.2-1.1-.4-2.1-.4-1.9 0-3.1 1.2-3.1 2.9 0 2 1.5 2.9 3.2 2.9.9 0 1.6-.2 2.2-.4l.5 2.5zM303.5 66v2.6h-3.3v8h-3.5v-8h-3.3V66zm5 0v3.1c.5-.1 1.2-.2 1.8-.2 2.5 0 5.3.8 5.3 3.7 0 1.4-.6 2.3-1.5 2.9-1.4 1-3.7 1.2-5.3 1.2-1.3 0-2.6 0-3.8-.2V66h3.5zm0 8.4c.3 0 .6.1 1.3.1 1.1 0 2.5-.3 2.5-1.6 0-1.4-1.6-1.6-2.6-1.6-.5 0-.9.1-1.2.1v3z" class="st7"/>
</svg>
